<?xml version="1.0" standalone="no"?>
<!DOCTYPE svg PUBLIC "-//W3C//DTD SVG 20010904//EN"
 "http://www.w3.org/TR/2001/REC-SVG-20010904/DTD/svg10.dtd">
<svg version="1.0" xmlns="http://www.w3.org/2000/svg"
 width="512.000000pt" height="512.000000pt" viewBox="0 0 512.000000 512.000000"
 preserveAspectRatio="xMidYMid meet">
<metadata>
Created by potrace 1.11, written by Peter Selinger 2001-2013
</metadata>
<g transform="translate(0.000000,512.000000) scale(0.100000,-0.100000)"
fill="#000000" stroke="none">
<path d="M210 2910 l0 -790 155 0 155 0 0 547 0 548 45 -65 c24 -36 131 -182
238 -325 l194 -260 75 -3 75 -3 184 267 c101 147 200 294 220 326 20 32 38 60
40 62 2 3 3 -398 1 -890 l-2 -894 155 0 155 0 0 1135 0 1135 -139 0 -140 0
-214 -312 c-118 -172 -240 -353 -272 -401 -31 -49 -61 -85 -64 -80 -4 4 -29
40 -56 78 -27 39 -156 215 -288 393 l-238 322 -140 0 -139 0 0 -790z"/>
<path d="M3470 2900 l0 -790 155 0 155 0 0 790 0 790 -155 0 -155 0 0 -790z"/>
<path d="M4600 3365 l0 -325 -355 0 -356 0 3 -122 3 -123 353 -3 352 -2 0
-340 0 -340 155 0 155 0 0 790 0 790 -155 0 -155 0 0 -325z"/>
<path d="M2730 2685 l0 -325 -355 0 -355 0 0 -125 0 -125 355 0 355 0 0 -340
0 -340 155 0 155 0 0 790 0 790 -155 0 -155 0 0 -325z"/>
</g>
</svg>
