<svg xmlns="http://www.w3.org/2000/svg" xmlns:xlink="http://www.w3.org/1999/xlink" width="1440" height="2455"><symbol id="icon-bulletpoint" viewBox="0 0 10 10">
    <rect width="10" height="10" x="259" y="594" fill="currentColor" fill-rule="evenodd" rx="2" transform="translate(-259 -594)"/>
</symbol><use xlink:href="#icon-bulletpoint" x="0" y="0" width="10" height="10"/><symbol id="icon-calender" viewBox="0 0 35 33">
    <path fill="currentColor" fill-rule="nonzero" d="M2.198 8.511l3.214-.922.081.284.089.31c.037.13.088.253.148.368.413.788 1.32 1.21 2.19.961l.437-.125c.869-.25 1.415-1.088 1.347-1.975a1.96 1.96 0 0 0-.07-.392l-.088-.31-.082-.283L17.06 4.25l.081.283.089.31c.037.13.088.253.148.369.413.788 1.32 1.21 2.19.96l.436-.125c.87-.249 1.416-1.088 1.348-1.975a1.96 1.96 0 0 0-.07-.392l-.088-.309-.082-.283 1.057-.303c1.302-.374 2.672.406 3.054 1.737l.27.945 8.351 13.742c.313.515.379 1.112.18 1.64-.218.582-.732 1.028-1.409 1.222l-2.181.626.285.993c.382 1.331-.367 2.718-1.669 3.091L9.08 32.507c-1.302.374-2.672-.406-3.053-1.737L.529 11.602c-.381-1.331.367-2.718 1.669-3.091zm30.02 12.18c.248-.07.432-.209.492-.368.042-.112.022-.236-.06-.37L24.952 7.284 3.698 13.378l7.49 12.327c.276.453 1.063.712 1.653.543l19.378-5.557zM7.376 30.383c.163.57.75.905 1.308.745l19.97-5.727c.558-.16.879-.754.715-1.324l-.285-.993-15.847 4.544c-1.205.345-2.629-.172-3.24-1.178L2.896 14.768l4.477 15.615zM18.466.687l-.436.125a1.087 1.087 0 0 0-.73 1.351l.705 2.457c.167.581.765.922 1.334.759l.437-.125c.569-.163.896-.77.729-1.35L19.8 1.445a1.087 1.087 0 0 0-1.334-.759zM6.383 4.152a1.087 1.087 0 0 0-.73 1.35l.705 2.458c.167.581.765.922 1.334.759l.437-.126c.569-.163.896-.769.729-1.35l-.705-2.457a1.087 1.087 0 0 0-1.333-.76l-.437.126z"/>
</symbol><use xlink:href="#icon-calender" x="0" y="20" width="35" height="33"/><symbol id="icon-datepicker" viewBox="0 0 30 25">
    <path fill="currentColor" fill-rule="nonzero" d="M1.333 0C.606 0 0 .614 0 1.351V23.65C0 24.386.606 25 1.333 25h23.334a.664.664 0 0 0 .468-.2l4.667-4.73a.688.688 0 0 0 .198-.475V1.35C30 .614 29.394 0 28.667 0H1.333zm0 1.351h27.334v5.406H1.333V1.35zm6 1.352C6.597 2.703 6 3.308 6 4.054s.597 1.351 1.333 1.351c.737 0 1.334-.605 1.334-1.35 0-.747-.597-1.352-1.334-1.352zm15.334 0c-.737 0-1.334.605-1.334 1.351s.597 1.351 1.334 1.351c.736 0 1.333-.605 1.333-1.35 0-.747-.597-1.352-1.333-1.352zM1.333 8.108h27.334v10.81h-3.334c-.727 0-1.333.615-1.333 1.352v3.379H1.333V8.109zm2.334 1.69v12.161H21v-5.405h5.333V9.797H3.667zM5 11.147h4v4.055H5v-4.054zm5.333 0h4v4.055h-4v-4.054zm5.334 0h4v4.055h-4v-4.054zm5.333 0h4v4.055h-4v-4.054zM5 16.555h4v4.054H5v-4.054zm5.333 0h4v4.054h-4v-4.054zm5.334 0h4v4.054h-4v-4.054zm9.666 3.716h2.386l-2.386 2.418V20.27z"/>
</symbol><use xlink:href="#icon-datepicker" x="0" y="63" width="30" height="25"/><symbol id="icon-down" viewBox="0 0 30 16">
    <path fill="currentColor" fill-rule="nonzero" d="M30 1.694c0 .391-.13.756-.391 1.095L16.277 15.335c-.34.443-.782.665-1.33.665-.547 0-.99-.222-1.329-.665L.364 2.828a1.656 1.656 0 0 1-.352-1.251c.052-.47.26-.848.626-1.135A1.655 1.655 0 0 1 1.888.09c.47.052.848.261 1.135.626l11.924 10.825L26.95.638a1.612 1.612 0 0 1 1.134-.626c.47-.052.886.065 1.251.352.443.34.665.782.665 1.33z"/>
</symbol><use xlink:href="#icon-down" x="0" y="98" width="30" height="16"/><symbol id="icon-downloads" viewBox="0 0 32 31">
    <path fill="currentColor" fill-rule="nonzero" d="M16 0c-2.49 0-4.993.94-6.891 2.82-1.412 1.398-2.268 3.132-2.63 4.94C2.793 8.469 0 11.655 0 15.5c0 4.363 3.594 7.922 8 7.922h3.826c.376.005.726-.19.916-.512.19-.322.19-.72 0-1.042a1.046 1.046 0 0 0-.916-.512H8c-3.278 0-5.913-2.61-5.913-5.856 0-3.066 2.354-5.563 5.37-5.834.487-.047.875-.423.934-.904a7.535 7.535 0 0 1 2.196-4.489C12.085 2.79 14.039 2.067 16 2.067c1.961 0 3.903.722 5.402 2.206a7.538 7.538 0 0 1 2.196 6.276c-.037.293.054.589.252.811.197.223.481.35.78.351h.413c2.716 0 4.87 2.133 4.87 4.822 0 2.69-2.154 4.823-4.87 4.823h-4.87a1.046 1.046 0 0 0-.915.512c-.19.322-.19.72 0 1.042.19.322.54.517.916.512h4.87c3.835 0 6.956-3.09 6.956-6.889 0-3.585-2.789-6.503-6.326-6.824.016-2.493-.878-4.992-2.794-6.889A9.755 9.755 0 0 0 16 0zm0 16.533c-.576 0-1.043.463-1.043 1.034V27.63l-2.077-1.873c-.404-.363-1.109-.334-1.478.065a1.036 1.036 0 0 0 .065 1.463l3.826 3.445A.94.94 0 0 0 16 31c.348 0 .5-.082.707-.27l3.826-3.444c.4-.367.476-1.065.065-1.463-.39-.379-1.074-.428-1.478-.065l-2.077 1.873V17.567c0-.571-.467-1.034-1.043-1.034z"/>
</symbol><use xlink:href="#icon-downloads" x="0" y="124" width="32" height="31"/><symbol id="icon-e-mail" viewBox="0 0 32 27">
    <path fill="none" fill-rule="evenodd" stroke="currentColor" stroke-linecap="round" stroke-linejoin="round" d="M4 1h24c1.65 0 3 1.406 3 3.125v18.75C31 24.594 29.65 26 28 26H4c-1.65 0-3-1.406-3-3.125V4.125C1 2.406 2.35 1 4 1zm27 3.125L16 15.063 1 4.124"/>
</symbol><use xlink:href="#icon-e-mail" x="0" y="165" width="32" height="27"/><symbol id="icon-envelope" viewBox="0 0 82 56">
<path d="M6 0C5.19325 0 4.42016 0.1512 3.71875 0.4375L38.6562 32.0312C40.199 33.4275 41.7351 33.4282 43.2812 32.0312L78.25 0.4375C77.5559 0.1582 76.7964 0 76 0H6ZM0.0625 5.1875C0.02741 5.451 0 5.7266 0 6V50C0 53.3239 2.67606 56 6 56H76C79.3239 56 82 53.3239 82 50V6C82 5.7266 81.9726 5.451 81.9375 5.1875L47.3125 36.4688C43.7355 39.7006 38.2016 39.7055 34.625 36.4688L0.0625 5.1875Z" fill="currentColor"/>
</symbol><use xlink:href="#icon-envelope" x="0" y="202" width="82" height="56"/><symbol id="icon-extern" viewBox="0 0 25 25">
    <path fill="currentColor" fill-rule="nonzero" d="M0 20.014V7.194c0-2.742 2.237-4.986 4.972-4.986h7.812c.781 0 1.42.641 1.42 1.424 0 .784-.639 1.425-1.42 1.425H4.972A2.14 2.14 0 0 0 2.84 7.194v12.82a2.14 2.14 0 0 0 2.13 2.137h12.785a2.14 2.14 0 0 0 2.13-2.137V12.18c0-.783.64-1.424 1.42-1.424.782 0 1.421.641 1.421 1.424v7.835c0 2.742-2.237 4.986-4.971 4.986H4.972C2.237 25 0 22.756 0 20.014zm25-18.59v6.553c0 .784-.64 1.425-1.42 1.425-.782 0-1.42-.641-1.42-1.425V4.88l-9.198 9.188a1.39 1.39 0 0 1-1.953 0 1.455 1.455 0 0 1-.036-2.03l9.162-9.188h-3.09c-.78 0-1.42-.641-1.42-1.424 0-.784.64-1.425 1.42-1.425h6.57c.071 0 .178.036.249.036l.07.035c.072.036.107.036.178.071.036 0 .071.036.107.036.035 0 .106.036.142.071.142.107.284.25.39.392 0 .071.036.107.071.178 0 0 .036.036.036.071a.272.272 0 0 1 .071.178c.035.036.035.036.035.072.036.106.036.178.036.285z"/>
</symbol><use xlink:href="#icon-extern" x="0" y="268" width="25" height="25"/><symbol id="icon-facebook-f" viewBox="0 0 12 24">
<path fill-rule="evenodd" clip-rule="evenodd" d="M8 8H12L11.5 12H8V24H2.812V12H0V8H2.813V5.312C2.813 3.562 3.25 2.24 4.125 1.344C5 0.448 6.458 0 8.5 0H12V4H9.875C9.083 4 8.573 4.125 8.344 4.375C8.114 4.625 8 5.042 8 5.625V8Z" fill="currentColor"/>
</symbol><use xlink:href="#icon-facebook-f" x="0" y="303" width="12" height="24"/><symbol id="icon-facebook" viewBox="0 0 34 34">
    <g fill="none" fill-rule="evenodd">
        <rect width="34" height="34" fill="#F03C14" rx="3"/>
        <path fill="#FFF" d="M19 13h4l-.5 4H19v12h-5.188V17H11v-4h2.813v-2.688c0-1.75.437-3.072 1.312-3.968C16 5.448 17.458 5 19.5 5H23v4h-2.125c-.792 0-1.302.125-1.531.375-.23.25-.344.667-.344 1.25V13z"/>
    </g>
</symbol><use xlink:href="#icon-facebook" x="0" y="337" width="34" height="34"/><symbol id="icon-fax" viewBox="0 0 32 32">
    <path fill="none" fill-rule="evenodd" stroke="currentColor" stroke-linecap="round" stroke-linejoin="round" d="M7 19h18v12H7V19zm0 6H4a3 3 0 0 1-3-3v-7.5a3 3 0 0 1 3-3h24a3 3 0 0 1 3 3V22a3 3 0 0 1-3 3h-3M7 11.5V1h18v10.5"/>
</symbol><use xlink:href="#icon-fax" x="0" y="381" width="32" height="32"/><symbol id="icon-left" viewBox="0 0 16 30">
    <path fill="currentColor" fill-rule="nonzero" d="M14.306 30c-.391 0-.756-.13-1.095-.391L.665 16.277c-.443-.34-.665-.782-.665-1.33 0-.547.222-.99.665-1.329L13.172.364a1.656 1.656 0 0 1 1.251-.352c.47.052.848.26 1.135.626.287.365.404.782.352 1.25-.052.47-.261.848-.626 1.135L4.459 14.947 15.362 26.95c.365.287.574.665.626 1.134.052.47-.065.886-.352 1.251-.34.443-.782.665-1.33.665z"/>
</symbol><use xlink:href="#icon-left" x="0" y="423" width="16" height="30"/><symbol id="icon-light" viewBox="0 0 32 34">
    <path fill="currentColor" fill-rule="nonzero" d="M16 6.634c-3.606 0-6.763 1.88-8.241 4.904-1.664 3.408-.913 7.47 2.01 10.863.566.658.698 1.5.825 2.314.124.795.284 1.795 1.047 2.32v4.058a.72.72 0 0 0 .148.434l1.644 2.17c.144.19.374.303.619.303h3.895a.777.777 0 0 0 .62-.303l1.644-2.17a.72.72 0 0 0 .147-.434v-4.057c.764-.526.924-1.525 1.047-2.32.127-.815.259-1.657.826-2.315 2.922-3.394 3.674-7.455 2.01-10.863C22.763 8.513 19.605 6.634 16 6.634zm1.558 25.892H14.44l-.736-.972h4.59l-.737.972zm1.268-2.078h-5.653v-.972h5.653v.972zm0-2.078h-5.653v-.973h5.653v.973zm2.225-6.909c-.84.974-1.018 2.117-1.161 3.036-.206 1.32-.32 1.425-.87 1.425H12.98c-.549 0-.663-.105-.87-1.426-.143-.919-.322-2.061-1.16-3.035-2.534-2.943-3.209-6.418-1.803-9.295C10.387 9.626 12.949 8.11 16 8.11c3.05 0 5.613 1.517 6.854 4.057 1.405 2.876.731 6.352-1.803 9.295zM16 3.686c-.423 0-.766-.33-.766-.737V.737C15.234.33 15.577 0 16 0c.422 0 .766.33.766.737v2.212c0 .407-.344.737-.766.737zM8.868 4.984L7.72 3.07A.722.722 0 0 1 8 2.063a.782.782 0 0 1 1.046.27l1.15 1.914a.722.722 0 0 1-.28 1.008.783.783 0 0 1-1.048-.27zM5.18 8.534a.722.722 0 0 1 .28 1.007.783.783 0 0 1-1.046.27l-1.99-1.106a.721.721 0 0 1-.28-1.007.783.783 0 0 1 1.046-.27l1.99 1.106zm24.396 13.553a.722.722 0 0 1 .28 1.007.782.782 0 0 1-1.046.27l-1.99-1.106a.722.722 0 0 1-.28-1.007.782.782 0 0 1 1.046-.27l1.99 1.106zM3.831 15.396c0 .407-.344.737-.767.737H.766c-.423 0-.766-.33-.766-.737s.343-.737.766-.737h2.298c.423 0 .767.33.767.737zm27.403-.737c.423 0 .766.33.766.737s-.343.737-.766.737h-2.298c-.423 0-.767-.33-.767-.737s.344-.737.767-.737h2.298zM4.414 20.98a.783.783 0 0 1 1.046.27.722.722 0 0 1-.28 1.007l-1.99 1.106a.782.782 0 0 1-1.046-.27.722.722 0 0 1 .28-1.007l1.99-1.106zm23.172-11.17a.782.782 0 0 1-1.046-.27.722.722 0 0 1 .28-1.007l1.99-1.106a.782.782 0 0 1 1.046.27.721.721 0 0 1-.28 1.007l-1.99 1.106zm-5.501-4.556a.721.721 0 0 1-.28-1.007l1.148-1.915A.782.782 0 0 1 24 2.063a.722.722 0 0 1 .28 1.007l-1.149 1.915a.783.783 0 0 1-1.046.27z"/>
</symbol><use xlink:href="#icon-light" x="0" y="463" width="32" height="34"/><symbol id="icon-list" viewBox="0 0 30 30">
    <path fill="currentColor" fill-rule="nonzero" d="M29.25 27.375a.75.75 0 0 1 0 1.5h-21a.75.75 0 0 1 0-1.5h21zm-21-24.75a.75.75 0 0 1 0-1.5h21a.75.75 0 0 1 0 1.5h-21zM1.875 3.75a1.875 1.875 0 1 1 0-3.75 1.875 1.875 0 0 1 0 3.75zm0 22.5a1.874 1.874 0 1 1 .001 3.749 1.874 1.874 0 0 1-.001-3.749zm27.375-7.624a.75.75 0 0 1 0 1.5h-21a.75.75 0 0 1 0-1.5h21zM1.875 17.501a1.874 1.874 0 1 1 .001 3.75 1.874 1.874 0 0 1-.001-3.75zM29.25 9.873a.75.75 0 0 1 0 1.5h-21a.75.75 0 0 1 0-1.5h21zM1.875 12.499a1.875 1.875 0 1 1 0-3.75 1.875 1.875 0 0 1 0 3.75z"/>
</symbol><use xlink:href="#icon-list" x="0" y="507" width="30" height="30"/><symbol id="icon-location" viewBox="0 0 29 40">
    <path fill="currentColor" fill-rule="evenodd" d="M14.5 0C22.497 0 29 6.312 29 14.07c0 2.09-.476 4.12-1.414 6.033-4.33 9.69-12.475 19.19-12.557 19.286L14.5 40l-.528-.61c-.082-.096-8.251-9.596-12.59-19.308A13.555 13.555 0 0 1 0 14.07C0 6.312 6.505 0 14.5 0zm.5 21c3.865 0 7-2.91 7-6.5S18.865 8 15 8s-7 2.91-7 6.5 3.135 6.5 7 6.5z"/>
</symbol><use xlink:href="#icon-location" x="0" y="547" width="29" height="40"/><symbol id="icon-map" viewBox="0 0 40 34">
    <path fill="currentColor" fill-rule="nonzero" d="M39.53 11.144l-2.37-1.17c-.166.518-.365 1.05-.587 1.589l1.725.851V31.8l-7.873-3.885v-6.57h-1.701v6.57L20.85 31.8V12.414l1.725-.85c-.222-.54-.421-1.072-.587-1.59L20 10.957l-9.194-4.538a.86.86 0 0 0-.762 0L.471 11.144a.838.838 0 0 0-.471.751V33.16c0 .29.153.56.404.714a.862.862 0 0 0 .828.037l9.193-4.538 9.195 4.538c.239.119.522.119.76 0l9.195-4.538 9.194 4.538a.853.853 0 0 0 .827-.037.839.839 0 0 0 .404-.714V11.895a.838.838 0 0 0-.47-.75zM9.574 27.915L1.702 31.8V12.414L9.575 8.53v19.386zm9.574 3.885l-7.873-3.885V8.53l7.873 3.885V31.8zm10.426-11.218c-.56 0-1.08-.292-1.428-.801-.236-.343-5.835-8.506-5.835-12.611 0-3.953 3.258-7.17 7.263-7.17 4.004 0 7.262 3.217 7.262 7.17 0 4.105-5.6 12.269-5.837 12.614-.346.506-.867.798-1.425.798zm0-18.902c-3.066 0-5.56 2.463-5.56 5.49 0 2.98 4 9.433 5.541 11.668l.019.026a.302.302 0 0 0 .016-.023c1.543-2.238 5.544-8.692 5.544-11.671 0-3.027-2.495-5.49-5.56-5.49zm3.316 5.49c0 1.804-1.488 3.272-3.316 3.272-1.828 0-3.316-1.468-3.316-3.272 0-1.805 1.488-3.274 3.316-3.274 1.828 0 3.316 1.469 3.316 3.274zm-4.93 0c0 .878.724 1.592 1.614 1.592.89 0 1.613-.714 1.613-1.592 0-.878-.724-1.594-1.613-1.594-.89 0-1.614.716-1.614 1.594z"/>
</symbol><use xlink:href="#icon-map" x="0" y="597" width="40" height="34"/><symbol id="icon-megaphone" viewBox="0 0 28 30">
    <path fill="currentColor" fill-rule="nonzero" d="M26.439 6.922C24.384 2.782 20.739 0 17.37 0c-.9 0-1.747.197-2.519.586-1.583.798-2.647 2.324-3.144 4.225-3.72 3.864-8.847 7.378-8.9 7.413-2.61 1.78-3.534 5.022-2.2 7.709 1.01 2.039 3.056 3.22 5.287 3.22.709 0 1.437-.119 2.156-.368l.056-.02 2.741 5.523a3.061 3.061 0 0 0 1.78 1.55 3.033 3.033 0 0 0 2.347-.165l.399-.201c1.517-.764 2.133-2.63 1.374-4.157l-2.174-4.381c1.5-.349 3.113-.668 4.68-.87.911.376 1.838.584 2.745.584.9 0 1.747-.197 2.518-.586 1.847-.93 3.051-2.84 3.389-5.375.327-2.446-.194-5.203-1.466-7.765zM15.614 25.885a1.83 1.83 0 0 1-.808 2.444l-.4.202c-.43.216-.918.25-1.379.096a1.8 1.8 0 0 1-1.046-.91l-2.654-5.348c.95-.298 2.36-.716 3.982-1.128l2.305 4.644zm-7.977-4.308c-2.371.824-4.852-.108-5.897-2.215-1.046-2.107-.299-4.664 1.778-6.08.193-.132 4.286-2.938 7.878-6.369-.097 2.132.395 4.52 1.533 6.813 1.121 2.258 2.717 4.108 4.48 5.326-4.874.836-9.551 2.45-9.772 2.525zm9.66-10.051c.469.945 1.178 1.662 1.953 2.023l-3.304 2.469a14.062 14.062 0 0 1-1.883-2.863 14.108 14.108 0 0 1-1.147-3.233l3.947-1.182c-.174.828-.043 1.824.434 2.786zm1.33-3.327a.826.826 0 0 1 .376-.086c.677 0 1.473.65 1.935 1.579.296.599.425 1.257.351 1.804-.035.271-.156.753-.551.953a.829.829 0 0 1-.374.084c-.678 0-1.472-.648-1.934-1.578-.562-1.132-.468-2.42.198-2.756zm8.023 6.317c-.28 2.105-1.239 3.67-2.7 4.404a4.298 4.298 0 0 1-1.95.451c-1.74 0-3.58-.902-5.174-2.421l4.563-3.41c.623-.353 1.044-1.027 1.157-1.874.108-.807-.06-1.711-.475-2.546-.69-1.387-1.894-2.284-3.068-2.284-.312 0-.607.067-.88.194l-5.42 1.623c-.355-3.131.599-5.86 2.715-6.925a4.3 4.3 0 0 1 1.951-.451c2.902 0 6.09 2.498 7.936 6.216 1.16 2.335 1.636 4.83 1.345 7.023z"/>
</symbol><use xlink:href="#icon-megaphone" x="0" y="641" width="28" height="30"/><symbol id="icon-mhh-logo-microsite-de" viewBox="0 0 300 120">
<path fill-rule="evenodd" clip-rule="evenodd" d="M0 67.4419V33H5.8034L15.0149 46.0136C16.24 47.7899 17.1449 49.0975 17.9445 50.4562H18.0506C18.7954 49.1487 19.7012 47.6337 20.9263 45.8043L29.3381 33H35.1955V82.3483H28.7526V48.0001C28.7526 46.5883 28.7526 44.8111 28.8587 43.4524H28.7526C28.2731 44.4456 26.9959 46.3791 26.3564 47.3202L19.4349 57.8777H16.5062L8.83913 47.0589C8.09256 46.0136 7.13552 44.8111 6.44293 43.5053H6.33679C6.38896 44.8632 6.38896 46.6413 6.38896 47.8429V67.4419H0Z" fill="#786E64"/>
<path fill-rule="evenodd" clip-rule="evenodd" d="M37.58 62.1225H52.3296V47.9073H58.7725V82.3483H52.3296V67.4533H37.58V62.1225Z" fill="#786E64"/>
<path fill-rule="evenodd" clip-rule="evenodd" d="M76.5479 47.3467H91.2975V33.1315H97.7404V67.5725H91.2975V52.6775H76.5479V47.3467ZM67.8689 67.5734H74.2579V33.1315H67.8689V67.5734Z" fill="#786E64"/>
<path fill-rule="evenodd" clip-rule="evenodd" d="M111.17 103.859H113.471V98.4202H117.196V103.859H119.499V91.5338H117.196V96.5485H113.471V91.5338H111.17V103.859Z" fill="#786E64"/>
<path fill-rule="evenodd" clip-rule="evenodd" d="M122.59 97.0606C123.022 96.7075 124.011 96.1777 125.128 96.1777C126.405 96.1777 126.854 97.0076 126.854 97.9082V98.2437H126.405C123.58 98.2437 121.53 98.8617 121.53 101.334C121.53 103.029 122.861 104 124.3 104C125.63 104 126.332 103.364 126.89 102.623H126.926C126.926 103.064 126.945 103.506 127.053 103.859H129.067C129.013 103.506 128.941 102.905 128.941 102.252V98.279C128.941 96.0012 128.276 94.6239 125.397 94.6239C123.975 94.6239 123.094 95.0123 122.465 95.2949L122.59 97.0606ZM126.854 99.9211C126.854 101.546 126.369 102.517 125.037 102.517C124.173 102.517 123.617 101.952 123.617 101.122C123.617 99.7975 124.749 99.409 126.656 99.409H126.854V99.9211Z" fill="#786E64"/>
<path fill-rule="evenodd" clip-rule="evenodd" d="M131.191 103.859H133.421V98.5615C133.421 97.3961 133.835 96.4249 135.005 96.4249C135.922 96.4249 136.282 97.0076 136.282 98.4026V103.859H138.512V97.9965C138.512 96.1601 137.882 94.6239 135.778 94.6239C134.267 94.6239 133.638 95.6127 133.314 96.1601H133.332H133.277C133.277 95.701 133.224 95.2242 133.206 94.7651H131.119C131.172 95.1713 131.191 95.701 131.191 96.266V103.859Z" fill="#786E64"/>
<path fill-rule="evenodd" clip-rule="evenodd" d="M140.703 103.859H142.934V98.5615C142.934 97.3961 143.347 96.4249 144.517 96.4249C145.434 96.4249 145.794 97.0076 145.794 98.4026V103.859H148.025V97.9965C148.025 96.1601 147.395 94.6239 145.29 94.6239C143.779 94.6239 143.149 95.6127 142.826 96.1601H142.844H142.79C142.79 95.701 142.736 95.2242 142.718 94.7651H140.631C140.685 95.1713 140.703 95.701 140.703 96.266V103.859Z" fill="#786E64"/>
<path fill-rule="evenodd" clip-rule="evenodd" d="M152.266 99.3031C152.266 97.7845 152.608 96.1777 154.047 96.1777C155.486 96.1777 155.81 97.7845 155.81 99.3031C155.81 100.822 155.486 102.446 154.047 102.446C152.608 102.446 152.266 100.822 152.266 99.3031ZM149.963 99.3031C149.963 103.117 152.158 104 154.047 104C155.935 104 158.112 103.117 158.112 99.3031C158.112 95.595 155.935 94.6239 154.047 94.6239C152.158 94.6239 149.963 95.595 149.963 99.3031Z" fill="#786E64"/>
<path fill-rule="evenodd" clip-rule="evenodd" d="M162.049 103.859H164.676L167.518 94.7651H165.359L163.453 101.775H163.417L161.528 94.7651H159.225L162.049 103.859Z" fill="#786E64"/>
<path fill-rule="evenodd" clip-rule="evenodd" d="M175.577 101.687C175.163 101.987 174.516 102.393 173.149 102.393C171.422 102.393 170.792 101.457 170.792 99.9035H176.153V99.4797C176.153 95.7716 174.444 94.6239 172.447 94.6239C170.09 94.6239 168.633 96.7251 168.633 99.4444C168.633 101.899 169.929 104 172.915 104C174.246 104 175.217 103.612 175.685 103.417L175.577 101.687ZM170.792 98.5261C170.792 97.3254 171.278 96.1071 172.447 96.1071C173.454 96.1071 173.994 96.9193 173.994 98.5261H170.792Z" fill="#786E64"/>
<path fill-rule="evenodd" clip-rule="evenodd" d="M178.133 103.859H180.363V98.8793C180.363 97.1842 181.371 96.6368 182.288 96.6368C182.522 96.6368 182.72 96.6721 182.918 96.7251V94.6768C182.792 94.6592 182.684 94.6239 182.54 94.6239C181.155 94.6239 180.453 95.7186 180.184 96.4249H180.148C180.148 95.8776 180.094 95.3125 180.076 94.7651H178.061C178.115 95.1713 178.133 95.701 178.133 96.266V103.859Z" fill="#786E64"/>
<path fill-rule="evenodd" clip-rule="evenodd" d="M121.1 83.5526H123.187V71.2276H119.859L117.214 80.4272H117.177L114.588 71.2276H111.151V83.5526H113.238V73.2759H113.274L116.279 83.5526H117.916L121.063 73.2759H121.1V83.5526Z" fill="#786E64"/>
<path fill-rule="evenodd" clip-rule="evenodd" d="M132.379 81.3807C131.965 81.6809 131.318 82.087 129.951 82.087C128.224 82.087 127.594 81.1511 127.594 79.5973H132.955V79.1735C132.955 75.4654 131.246 74.3177 129.249 74.3177C126.892 74.3177 125.435 76.4189 125.435 79.1382C125.435 81.5926 126.73 83.6938 129.717 83.6938C131.048 83.6938 132.019 83.3054 132.487 83.1111L132.379 81.3807ZM127.594 78.22C127.594 77.0193 128.08 75.8009 129.249 75.8009C130.256 75.8009 130.796 76.6132 130.796 78.22H127.594Z" fill="#786E64"/>
<path fill-rule="evenodd" clip-rule="evenodd" d="M140.241 70.3094V75.7656H140.206C139.882 75.0593 139.144 74.3177 137.813 74.3177C135.816 74.3177 134.611 76.0481 134.611 79.0146C134.611 81.5396 135.564 83.6938 137.867 83.6938C139.306 83.6938 139.972 82.9169 140.331 82.14H140.385C140.385 82.758 140.421 83.2877 140.457 83.5526H142.544C142.49 83.2171 142.472 82.652 142.472 81.9987V70.3094H140.241ZM136.842 78.9263C136.842 77.1076 137.273 75.9245 138.515 75.9245C139.738 75.9245 140.242 77.2135 140.242 78.9793C140.242 80.6921 139.792 82.087 138.479 82.087C137.183 82.087 136.842 81.0276 136.842 78.9263Z" fill="#786E64"/>
<path fill-rule="evenodd" clip-rule="evenodd" d="M144.916 83.5526H147.147V74.459H144.916V83.5526ZM144.88 72.7462H147.183V70.592H144.88V72.7462Z" fill="#786E64"/>
<path fill-rule="evenodd" clip-rule="evenodd" d="M149.05 83.5525H155.364V81.8927H151.353L155.239 76.3306V74.4589H149.176V76.1187H153.008L149.05 81.6632V83.5525Z" fill="#786E64"/>
<path fill-rule="evenodd" clip-rule="evenodd" d="M157.27 83.5526H159.5V74.459H157.27V83.5526ZM157.234 72.7462H159.536V70.592H157.234V72.7462Z" fill="#786E64"/>
<path fill-rule="evenodd" clip-rule="evenodd" d="M161.907 83.5526H164.138V78.2553C164.138 77.0899 164.552 76.1188 165.721 76.1188C166.638 76.1188 166.998 76.7015 166.998 78.0964V83.5526H169.229V77.6903C169.229 75.8539 168.599 74.3177 166.495 74.3177C164.983 74.3177 164.354 75.3065 164.03 75.8539H164.048H163.994C163.994 75.3948 163.94 74.918 163.922 74.4589H161.835C161.889 74.8651 161.907 75.3948 161.907 75.9598V83.5526Z" fill="#786E64"/>
<path fill-rule="evenodd" clip-rule="evenodd" d="M171.635 83.5526H173.866V74.459H171.635V83.5526ZM171.599 72.7462H173.902V70.592H171.599V72.7462Z" fill="#786E64"/>
<path fill-rule="evenodd" clip-rule="evenodd" d="M175.913 83.2524C176.381 83.429 177.334 83.6938 178.485 83.6938C180.5 83.6938 181.939 82.6874 181.939 81.0099C181.939 79.9504 181.364 79.4384 180.212 78.7144L179.115 78.0258C178.467 77.6196 178.072 77.3548 178.072 76.8604C178.072 76.313 178.449 75.9775 179.349 75.9775C180.158 75.9775 180.752 76.1717 181.31 76.3836L181.436 74.6885C181.22 74.6179 180.302 74.3177 179.115 74.3177C177.154 74.3177 175.913 75.642 175.913 76.8957C175.913 78.3259 176.938 78.9086 177.874 79.456L178.791 79.9858C179.601 80.4448 179.781 80.7803 179.781 81.1335C179.781 81.8398 179.151 82.034 178.341 82.034C177.298 82.034 176.381 81.5749 176.021 81.4337L175.913 83.2524Z" fill="#786E64"/>
<path fill-rule="evenodd" clip-rule="evenodd" d="M189.944 81.5926C189.638 81.7868 188.9 82.034 188.361 82.034C186.652 82.034 185.824 80.7274 185.824 79.0322C185.824 77.0899 186.562 75.9775 188.253 75.9775C188.864 75.9775 189.422 76.2247 189.818 76.4189L189.944 74.6885C189.53 74.5296 188.703 74.3177 188.001 74.3177C184.889 74.3177 183.522 76.4189 183.522 79.0146C183.522 81.5926 184.817 83.6938 187.875 83.6938C188.775 83.6938 189.548 83.5173 190.07 83.323L189.944 81.5926Z" fill="#786E64"/>
<path fill-rule="evenodd" clip-rule="evenodd" d="M191.613 83.5526H193.844V78.2553C193.844 77.0899 194.258 76.1188 195.427 76.1188C196.344 76.1188 196.704 76.7015 196.704 78.0964V83.5526H198.935V77.6903C198.935 75.8539 198.305 74.3177 196.2 74.3177C194.815 74.3177 194.294 75.0593 193.898 75.6244H193.844V70.3094H191.613V83.5526Z" fill="#786E64"/>
<path fill-rule="evenodd" clip-rule="evenodd" d="M207.817 81.3807C207.404 81.6809 206.756 82.087 205.389 82.087C203.662 82.087 203.033 81.1511 203.033 79.5973H208.394V79.1735C208.394 75.4654 206.684 74.3177 204.687 74.3177C202.331 74.3177 200.874 76.4189 200.874 79.1382C200.874 81.5926 202.169 83.6938 205.155 83.6938C206.486 83.6938 207.458 83.3054 207.925 83.1111L207.817 81.3807ZM203.033 78.22C203.033 77.0193 203.518 75.8009 204.687 75.8009C205.695 75.8009 206.234 76.6132 206.234 78.22H203.033Z" fill="#786E64"/>
<path fill-rule="evenodd" clip-rule="evenodd" d="M215.478 83.5526H217.781V78.1141H221.505V83.5526H223.807V71.2276H221.505V76.2424H217.781V71.2276H215.478V83.5526Z" fill="#786E64"/>
<path fill-rule="evenodd" clip-rule="evenodd" d="M228.375 78.9969C228.375 77.4784 228.717 75.8716 230.156 75.8716C231.595 75.8716 231.919 77.4784 231.919 78.9969C231.919 80.5155 231.595 82.14 230.156 82.14C228.717 82.14 228.375 80.5155 228.375 78.9969ZM226.072 78.9969C226.072 82.811 228.267 83.6938 230.156 83.6938C232.044 83.6938 234.221 82.811 234.221 78.9969C234.221 75.2889 232.044 74.3177 230.156 74.3177C228.267 74.3177 226.072 75.2889 226.072 78.9969Z" fill="#786E64"/>
<path fill-rule="evenodd" clip-rule="evenodd" d="M242.332 81.5926C242.026 81.7868 241.289 82.034 240.749 82.034C239.04 82.034 238.212 80.7274 238.212 79.0322C238.212 77.0899 238.95 75.9775 240.641 75.9775C241.253 75.9775 241.81 76.2247 242.206 76.4189L242.332 74.6885C241.918 74.5296 241.091 74.3177 240.389 74.3177C237.277 74.3177 235.91 76.4189 235.91 79.0146C235.91 81.5926 237.205 83.6938 240.263 83.6938C241.163 83.6938 241.936 83.5173 242.458 83.323L242.332 81.5926Z" fill="#786E64"/>
<path fill-rule="evenodd" clip-rule="evenodd" d="M244.001 83.5526H246.232V78.2553C246.232 77.0899 246.646 76.1188 247.815 76.1188C248.733 76.1188 249.092 76.7015 249.092 78.0964V83.5526H251.323V77.6903C251.323 75.8539 250.693 74.3177 248.589 74.3177C247.203 74.3177 246.682 75.0593 246.286 75.6244H246.232V70.3094H244.001V83.5526Z" fill="#786E64"/>
<path fill-rule="evenodd" clip-rule="evenodd" d="M253.154 83.2524C253.621 83.429 254.576 83.6938 255.727 83.6938C257.742 83.6938 259.181 82.6874 259.181 81.0099C259.181 79.9504 258.605 79.4384 257.453 78.7144L256.356 78.0258C255.708 77.6196 255.313 77.3548 255.313 76.8604C255.313 76.313 255.691 75.9775 256.59 75.9775C257.4 75.9775 257.993 76.1717 258.551 76.3836L258.676 74.6885C258.46 74.6179 257.543 74.3177 256.356 74.3177C254.396 74.3177 253.154 75.642 253.154 76.8957C253.154 78.3259 254.18 78.9086 255.115 79.456L256.032 79.9858C256.841 80.4448 257.022 80.7803 257.022 81.1335C257.022 81.8398 256.393 82.034 255.583 82.034C254.54 82.034 253.621 81.5749 253.262 81.4337L253.154 83.2524Z" fill="#786E64"/>
<path fill-rule="evenodd" clip-rule="evenodd" d="M267.184 81.5926C266.878 81.7868 266.141 82.034 265.601 82.034C263.892 82.034 263.065 80.7274 263.065 79.0322C263.065 77.0899 263.802 75.9775 265.493 75.9775C266.105 75.9775 266.663 76.2247 267.058 76.4189L267.184 74.6885C266.771 74.5296 265.943 74.3177 265.241 74.3177C262.129 74.3177 260.762 76.4189 260.762 79.0146C260.762 81.5926 262.057 83.6938 265.115 83.6938C266.015 83.6938 266.789 83.5173 267.31 83.323L267.184 81.5926Z" fill="#786E64"/>
<path fill-rule="evenodd" clip-rule="evenodd" d="M268.855 83.5526H271.085V78.2553C271.085 77.0899 271.499 76.1188 272.668 76.1188C273.585 76.1188 273.946 76.7015 273.946 78.0964V83.5526H276.176V77.6903C276.176 75.8539 275.546 74.3177 273.442 74.3177C272.057 74.3177 271.534 75.0593 271.139 75.6244H271.085V70.3094H268.855V83.5526Z" fill="#786E64"/>
<path fill-rule="evenodd" clip-rule="evenodd" d="M285.689 74.4589H283.458V79.6679C283.458 80.8333 283.116 81.8927 281.929 81.8927C280.993 81.8927 280.598 81.31 280.598 79.9151V74.4589H278.367V80.3212C278.367 82.1576 278.996 83.6938 281.101 83.6938C282.558 83.6938 283.134 82.8286 283.566 82.1576L283.548 82.1399L283.602 82.1576C283.602 82.6167 283.656 83.0935 283.674 83.5526H285.76C285.707 83.1464 285.689 82.6167 285.689 82.0517V74.4589Z" fill="#786E64"/>
<path fill-rule="evenodd" clip-rule="evenodd" d="M288.094 83.5526H290.325V70.3094H288.094V83.5526Z" fill="#786E64"/>
<path fill-rule="evenodd" clip-rule="evenodd" d="M299.424 81.3807C299.011 81.6809 298.363 82.087 296.996 82.087C295.269 82.087 294.639 81.1511 294.639 79.5973H300V79.1735C300 75.4654 298.291 74.3177 296.294 74.3177C293.938 74.3177 292.48 76.4189 292.48 79.1382C292.48 81.5926 293.776 83.6938 296.762 83.6938C298.093 83.6938 299.065 83.3054 299.532 83.1111L299.424 81.3807ZM294.639 78.22C294.639 77.0193 295.125 75.8009 296.294 75.8009C297.301 75.8009 297.841 76.6132 297.841 78.22H294.639Z" fill="#786E64"/>
<path d="M1.03601 15H6.31401V13.572H2.82801V10.688H5.99201V9.26H2.82801V6.656H6.17401V5.228H1.03601V15Z" fill="#F03C14"/>
<path d="M8.09201 15H9.82801V7.79H8.09201V15ZM8.06401 6.432H9.85601V4.724H8.06401V6.432Z" fill="#F03C14"/>
<path d="M11.7007 15H13.4367V10.8C13.4367 9.876 13.7587 9.106 14.6687 9.106C15.3827 9.106 15.6627 9.568 15.6627 10.674V15H17.3987V10.352C17.3987 8.896 16.9087 7.678 15.2707 7.678C14.0947 7.678 13.6047 8.462 13.3527 8.896H13.3247C13.3247 8.532 13.2827 8.154 13.2687 7.79H11.6447C11.6867 8.112 11.7007 8.532 11.7007 8.98V15Z" fill="#F03C14"/>
<path d="M24.2816 11.276L25.6256 6.712H25.6536L26.8856 11.276H24.2816ZM27.9496 15H29.7976L26.6476 5.228H24.6876L21.4116 15H23.2036L23.9036 12.648H27.2636L27.9496 15Z" fill="#F03C14"/>
<path d="M30.8102 15H32.5462V10.8C32.5462 9.876 32.8682 9.106 33.7782 9.106C34.4922 9.106 34.7722 9.568 34.7722 10.674V15H36.5082V10.352C36.5082 8.896 36.0182 7.678 34.3802 7.678C33.2042 7.678 32.7142 8.462 32.4622 8.896H32.4342C32.4342 8.532 32.3922 8.154 32.3782 7.79H30.7542C30.7962 8.112 30.8102 8.532 30.8102 8.98V15Z" fill="#F03C14"/>
<path d="M39.806 11.318C39.806 9.848 40.1559 9.008 41.0659 8.994C41.8919 8.98 42.466 9.792 42.466 11.304C42.466 12.942 42.0319 13.726 40.9399 13.726C40.3519 13.726 39.806 13.012 39.806 11.318ZM38.3359 17.66C38.7559 17.814 39.6659 18.108 40.8139 18.108C43.4599 18.108 44.146 16.498 44.146 14.244V8.924C44.146 8.546 44.174 8.168 44.202 7.79H42.6339C42.6199 8.168 42.5779 8.532 42.5779 8.91H42.5219C42.1579 8.28 41.668 7.678 40.618 7.678C38.728 7.678 38.014 9.428 38.014 11.416C38.014 14.328 39.526 15 40.534 15C41.668 15 42.158 14.342 42.438 13.782H42.466V14.468C42.466 15.602 42.2 16.736 40.562 16.736C39.652 16.736 38.8399 16.344 38.4339 16.12L38.3359 17.66Z" fill="#F03C14"/>
<path d="M51.0775 13.278C50.7555 13.516 50.2515 13.838 49.1875 13.838C47.8435 13.838 47.3535 13.096 47.3535 11.864H51.5255V11.528C51.5255 8.588 50.1955 7.678 48.6415 7.678C46.8075 7.678 45.6735 9.344 45.6735 11.5C45.6735 13.446 46.6815 15.112 49.0055 15.112C50.0415 15.112 50.7975 14.804 51.1615 14.65L51.0775 13.278ZM47.3535 10.772C47.3535 9.82 47.7315 8.854 48.6415 8.854C49.4255 8.854 49.8455 9.498 49.8455 10.772H47.3535Z" fill="#F03C14"/>
<path d="M53.0375 4.5V13.768C53.0375 14.286 53.0235 14.734 52.9815 15H54.6055C54.6335 14.79 54.6615 14.37 54.6615 13.88H54.7035C54.9835 14.496 55.5015 15.112 56.6215 15.112C58.4135 15.112 59.1555 13.404 59.1555 11.402C59.1555 9.05 58.2175 7.678 56.6635 7.678C55.6275 7.678 55.0535 8.266 54.8015 8.826H54.7735V4.5H53.0375ZM54.7735 11.374C54.7735 9.974 55.1655 8.952 56.1175 8.952C57.0835 8.952 57.4195 9.89 57.4195 11.332C57.4195 12.998 57.1535 13.838 56.1455 13.838C55.1235 13.838 54.7735 12.732 54.7735 11.374Z" fill="#F03C14"/>
<path d="M62.265 11.388C62.265 10.184 62.531 8.91 63.651 8.91C64.771 8.91 65.023 10.184 65.023 11.388C65.023 12.592 64.771 13.88 63.651 13.88C62.531 13.88 62.265 12.592 62.265 11.388ZM60.473 11.388C60.473 14.412 62.181 15.112 63.651 15.112C65.121 15.112 66.815 14.412 66.815 11.388C66.815 8.448 65.121 7.678 63.651 7.678C62.181 7.678 60.473 8.448 60.473 11.388Z" fill="#F03C14"/>
<path d="M68.9725 7.79H67.8245V9.064H68.9725V13.012C68.9725 14.524 69.7005 15.112 70.9885 15.112C71.5065 15.112 71.8845 15 72.1505 14.874V13.642C72.0245 13.712 71.8005 13.796 71.4925 13.796C70.9885 13.796 70.7085 13.572 70.7085 12.802V9.064H72.1505V7.79H70.7085V5.774L68.9725 6.306V7.79Z" fill="#F03C14"/>
<path d="M78.7211 15H80.7651L82.9771 7.79H81.2971L79.8131 13.348H79.7851L78.3151 7.79H76.5231L78.7211 15Z" fill="#F03C14"/>
<path d="M85.6434 11.388C85.6434 10.184 85.9094 8.91 87.0294 8.91C88.1494 8.91 88.4014 10.184 88.4014 11.388C88.4014 12.592 88.1494 13.88 87.0294 13.88C85.9094 13.88 85.6434 12.592 85.6434 11.388ZM83.8514 11.388C83.8514 14.412 85.5594 15.112 87.0294 15.112C88.4994 15.112 90.1934 14.412 90.1934 11.388C90.1934 8.448 88.4994 7.678 87.0294 7.678C85.5594 7.678 83.8514 8.448 83.8514 11.388Z" fill="#F03C14"/>
<path d="M91.7069 15H93.4429V10.8C93.4429 9.876 93.7649 9.106 94.6749 9.106C95.3889 9.106 95.6689 9.568 95.6689 10.674V15H97.4049V10.352C97.4049 8.896 96.9149 7.678 95.2769 7.678C94.1009 7.678 93.6109 8.462 93.3589 8.896H93.3309C93.3309 8.532 93.2889 8.154 93.2749 7.79H91.6509C91.6929 8.112 91.7069 8.532 91.7069 8.98V15Z" fill="#F03C14"/>
</symbol><use xlink:href="#icon-mhh-logo-microsite-de" x="0" y="681" width="300" height="120"/><symbol id="icon-mhh-logo-microsite-en" viewBox="0 0 300 120">
<path fill-rule="evenodd" clip-rule="evenodd" d="M0 67.4419V33H5.8034L15.0149 46.0136C16.24 47.7899 17.1449 49.0975 17.9445 50.4562H18.0506C18.7954 49.1487 19.7012 47.6337 20.9263 45.8043L29.3381 33H35.1955V82.3483H28.7526V48.0001C28.7526 46.5883 28.7526 44.8111 28.8587 43.4524H28.7526C28.2731 44.4456 26.9959 46.3791 26.3564 47.3202L19.4349 57.8777H16.5062L8.83913 47.0589C8.09256 46.0136 7.13552 44.8111 6.44293 43.5053H6.33679C6.38896 44.8632 6.38896 46.6413 6.38896 47.8429V67.4419H0Z" fill="#786E64"/>
<path fill-rule="evenodd" clip-rule="evenodd" d="M37.58 62.1225H52.3296V47.9073H58.7725V82.3483H52.3296V67.4533H37.58V62.1225Z" fill="#786E64"/>
<path fill-rule="evenodd" clip-rule="evenodd" d="M76.5479 47.3467H91.2975V33.1315H97.7404V67.5725H91.2975V52.6775H76.5479V47.3467ZM67.8689 67.5734H74.2579V33.1315H67.8689V67.5734Z" fill="#786E64"/>
<path fill-rule="evenodd" clip-rule="evenodd" d="M111.17 103.859H113.471V98.4202H117.196V103.859H119.499V91.5338H117.196V96.5485H113.471V91.5338H111.17V103.859Z" fill="#786E64"/>
<path fill-rule="evenodd" clip-rule="evenodd" d="M122.59 97.0606C123.022 96.7075 124.011 96.1777 125.128 96.1777C126.405 96.1777 126.854 97.0076 126.854 97.9082V98.2437H126.405C123.58 98.2437 121.53 98.8617 121.53 101.334C121.53 103.029 122.861 104 124.3 104C125.63 104 126.332 103.364 126.89 102.623H126.926C126.926 103.064 126.945 103.506 127.053 103.859H129.067C129.013 103.506 128.941 102.905 128.941 102.252V98.279C128.941 96.0012 128.276 94.6239 125.397 94.6239C123.975 94.6239 123.094 95.0123 122.465 95.2949L122.59 97.0606ZM126.854 99.9211C126.854 101.546 126.369 102.517 125.037 102.517C124.173 102.517 123.617 101.952 123.617 101.122C123.617 99.7975 124.749 99.409 126.656 99.409H126.854V99.9211Z" fill="#786E64"/>
<path fill-rule="evenodd" clip-rule="evenodd" d="M131.191 103.859H133.421V98.5615C133.421 97.3961 133.835 96.4249 135.005 96.4249C135.922 96.4249 136.282 97.0076 136.282 98.4026V103.859H138.512V97.9965C138.512 96.1601 137.882 94.6239 135.778 94.6239C134.267 94.6239 133.638 95.6127 133.314 96.1601H133.332H133.277C133.277 95.701 133.224 95.2242 133.206 94.7651H131.119C131.172 95.1713 131.191 95.701 131.191 96.266V103.859Z" fill="#786E64"/>
<path fill-rule="evenodd" clip-rule="evenodd" d="M140.703 103.859H142.934V98.5615C142.934 97.3961 143.347 96.4249 144.517 96.4249C145.434 96.4249 145.794 97.0076 145.794 98.4026V103.859H148.025V97.9965C148.025 96.1601 147.395 94.6239 145.29 94.6239C143.779 94.6239 143.149 95.6127 142.826 96.1601H142.844H142.79C142.79 95.701 142.736 95.2242 142.718 94.7651H140.631C140.685 95.1713 140.703 95.701 140.703 96.266V103.859Z" fill="#786E64"/>
<path fill-rule="evenodd" clip-rule="evenodd" d="M152.266 99.3031C152.266 97.7845 152.608 96.1777 154.047 96.1777C155.486 96.1777 155.81 97.7845 155.81 99.3031C155.81 100.822 155.486 102.446 154.047 102.446C152.608 102.446 152.266 100.822 152.266 99.3031ZM149.963 99.3031C149.963 103.117 152.158 104 154.047 104C155.935 104 158.112 103.117 158.112 99.3031C158.112 95.595 155.935 94.6239 154.047 94.6239C152.158 94.6239 149.963 95.595 149.963 99.3031Z" fill="#786E64"/>
<path fill-rule="evenodd" clip-rule="evenodd" d="M162.049 103.859H164.676L167.518 94.7651H165.359L163.453 101.775H163.417L161.528 94.7651H159.225L162.049 103.859Z" fill="#786E64"/>
<path fill-rule="evenodd" clip-rule="evenodd" d="M175.577 101.687C175.163 101.987 174.516 102.393 173.149 102.393C171.422 102.393 170.792 101.457 170.792 99.9035H176.153V99.4797C176.153 95.7716 174.444 94.6239 172.447 94.6239C170.09 94.6239 168.633 96.7251 168.633 99.4444C168.633 101.899 169.929 104 172.915 104C174.246 104 175.217 103.612 175.685 103.417L175.577 101.687ZM170.792 98.5261C170.792 97.3254 171.278 96.1071 172.447 96.1071C173.454 96.1071 173.994 96.9193 173.994 98.5261H170.792Z" fill="#786E64"/>
<path fill-rule="evenodd" clip-rule="evenodd" d="M178.133 103.859H180.363V98.8793C180.363 97.1842 181.371 96.6368 182.288 96.6368C182.522 96.6368 182.72 96.6721 182.918 96.7251V94.6768C182.792 94.6592 182.684 94.6239 182.54 94.6239C181.155 94.6239 180.453 95.7186 180.184 96.4249H180.148C180.148 95.8776 180.094 95.3125 180.076 94.7651H178.061C178.115 95.1713 178.133 95.701 178.133 96.266V103.859Z" fill="#786E64"/>
<path fill-rule="evenodd" clip-rule="evenodd" d="M121.1 83.5526H123.187V71.2276H119.859L117.214 80.4272H117.177L114.588 71.2276H111.151V83.5526H113.238V73.2759H113.274L116.279 83.5526H117.916L121.063 73.2759H121.1V83.5526Z" fill="#786E64"/>
<path fill-rule="evenodd" clip-rule="evenodd" d="M132.379 81.3807C131.965 81.6809 131.318 82.087 129.951 82.087C128.224 82.087 127.594 81.1511 127.594 79.5973H132.955V79.1735C132.955 75.4654 131.246 74.3177 129.249 74.3177C126.892 74.3177 125.435 76.4189 125.435 79.1382C125.435 81.5926 126.73 83.6938 129.717 83.6938C131.048 83.6938 132.019 83.3054 132.487 83.1111L132.379 81.3807ZM127.594 78.22C127.594 77.0193 128.08 75.8009 129.249 75.8009C130.256 75.8009 130.796 76.6132 130.796 78.22H127.594Z" fill="#786E64"/>
<path fill-rule="evenodd" clip-rule="evenodd" d="M140.241 70.3094V75.7656H140.206C139.882 75.0593 139.144 74.3177 137.813 74.3177C135.816 74.3177 134.611 76.0481 134.611 79.0146C134.611 81.5396 135.564 83.6938 137.867 83.6938C139.306 83.6938 139.972 82.9169 140.331 82.14H140.385C140.385 82.758 140.421 83.2877 140.457 83.5526H142.544C142.49 83.2171 142.472 82.652 142.472 81.9987V70.3094H140.241ZM136.842 78.9263C136.842 77.1076 137.273 75.9245 138.515 75.9245C139.738 75.9245 140.242 77.2135 140.242 78.9793C140.242 80.6921 139.792 82.087 138.479 82.087C137.183 82.087 136.842 81.0276 136.842 78.9263Z" fill="#786E64"/>
<path fill-rule="evenodd" clip-rule="evenodd" d="M144.916 83.5526H147.147V74.459H144.916V83.5526ZM144.88 72.7462H147.183V70.592H144.88V72.7462Z" fill="#786E64"/>
<path fill-rule="evenodd" clip-rule="evenodd" d="M149.05 83.5525H155.364V81.8927H151.353L155.239 76.3306V74.4589H149.176V76.1187H153.008L149.05 81.6632V83.5525Z" fill="#786E64"/>
<path fill-rule="evenodd" clip-rule="evenodd" d="M157.27 83.5526H159.5V74.459H157.27V83.5526ZM157.234 72.7462H159.536V70.592H157.234V72.7462Z" fill="#786E64"/>
<path fill-rule="evenodd" clip-rule="evenodd" d="M161.907 83.5526H164.138V78.2553C164.138 77.0899 164.552 76.1188 165.721 76.1188C166.638 76.1188 166.998 76.7015 166.998 78.0964V83.5526H169.229V77.6903C169.229 75.8539 168.599 74.3177 166.495 74.3177C164.983 74.3177 164.354 75.3065 164.03 75.8539H164.048H163.994C163.994 75.3948 163.94 74.918 163.922 74.4589H161.835C161.889 74.8651 161.907 75.3948 161.907 75.9598V83.5526Z" fill="#786E64"/>
<path fill-rule="evenodd" clip-rule="evenodd" d="M171.635 83.5526H173.866V74.459H171.635V83.5526ZM171.599 72.7462H173.902V70.592H171.599V72.7462Z" fill="#786E64"/>
<path fill-rule="evenodd" clip-rule="evenodd" d="M175.913 83.2524C176.381 83.429 177.334 83.6938 178.485 83.6938C180.5 83.6938 181.939 82.6874 181.939 81.0099C181.939 79.9504 181.364 79.4384 180.212 78.7144L179.115 78.0258C178.467 77.6196 178.072 77.3548 178.072 76.8604C178.072 76.313 178.449 75.9775 179.349 75.9775C180.158 75.9775 180.752 76.1717 181.31 76.3836L181.436 74.6885C181.22 74.6179 180.302 74.3177 179.115 74.3177C177.154 74.3177 175.913 75.642 175.913 76.8957C175.913 78.3259 176.938 78.9086 177.874 79.456L178.791 79.9858C179.601 80.4448 179.781 80.7803 179.781 81.1335C179.781 81.8398 179.151 82.034 178.341 82.034C177.298 82.034 176.381 81.5749 176.021 81.4337L175.913 83.2524Z" fill="#786E64"/>
<path fill-rule="evenodd" clip-rule="evenodd" d="M189.944 81.5926C189.638 81.7868 188.9 82.034 188.361 82.034C186.652 82.034 185.824 80.7274 185.824 79.0322C185.824 77.0899 186.562 75.9775 188.253 75.9775C188.864 75.9775 189.422 76.2247 189.818 76.4189L189.944 74.6885C189.53 74.5296 188.703 74.3177 188.001 74.3177C184.889 74.3177 183.522 76.4189 183.522 79.0146C183.522 81.5926 184.817 83.6938 187.875 83.6938C188.775 83.6938 189.548 83.5173 190.07 83.323L189.944 81.5926Z" fill="#786E64"/>
<path fill-rule="evenodd" clip-rule="evenodd" d="M191.613 83.5526H193.844V78.2553C193.844 77.0899 194.258 76.1188 195.427 76.1188C196.344 76.1188 196.704 76.7015 196.704 78.0964V83.5526H198.935V77.6903C198.935 75.8539 198.305 74.3177 196.2 74.3177C194.815 74.3177 194.294 75.0593 193.898 75.6244H193.844V70.3094H191.613V83.5526Z" fill="#786E64"/>
<path fill-rule="evenodd" clip-rule="evenodd" d="M207.817 81.3807C207.404 81.6809 206.756 82.087 205.389 82.087C203.662 82.087 203.033 81.1511 203.033 79.5973H208.394V79.1735C208.394 75.4654 206.684 74.3177 204.687 74.3177C202.331 74.3177 200.874 76.4189 200.874 79.1382C200.874 81.5926 202.169 83.6938 205.155 83.6938C206.486 83.6938 207.458 83.3054 207.925 83.1111L207.817 81.3807ZM203.033 78.22C203.033 77.0193 203.518 75.8009 204.687 75.8009C205.695 75.8009 206.234 76.6132 206.234 78.22H203.033Z" fill="#786E64"/>
<path fill-rule="evenodd" clip-rule="evenodd" d="M215.478 83.5526H217.781V78.1141H221.505V83.5526H223.807V71.2276H221.505V76.2424H217.781V71.2276H215.478V83.5526Z" fill="#786E64"/>
<path fill-rule="evenodd" clip-rule="evenodd" d="M228.375 78.9969C228.375 77.4784 228.717 75.8716 230.156 75.8716C231.595 75.8716 231.919 77.4784 231.919 78.9969C231.919 80.5155 231.595 82.14 230.156 82.14C228.717 82.14 228.375 80.5155 228.375 78.9969ZM226.072 78.9969C226.072 82.811 228.267 83.6938 230.156 83.6938C232.044 83.6938 234.221 82.811 234.221 78.9969C234.221 75.2889 232.044 74.3177 230.156 74.3177C228.267 74.3177 226.072 75.2889 226.072 78.9969Z" fill="#786E64"/>
<path fill-rule="evenodd" clip-rule="evenodd" d="M242.332 81.5926C242.026 81.7868 241.289 82.034 240.749 82.034C239.04 82.034 238.212 80.7274 238.212 79.0322C238.212 77.0899 238.95 75.9775 240.641 75.9775C241.253 75.9775 241.81 76.2247 242.206 76.4189L242.332 74.6885C241.918 74.5296 241.091 74.3177 240.389 74.3177C237.277 74.3177 235.91 76.4189 235.91 79.0146C235.91 81.5926 237.205 83.6938 240.263 83.6938C241.163 83.6938 241.936 83.5173 242.458 83.323L242.332 81.5926Z" fill="#786E64"/>
<path fill-rule="evenodd" clip-rule="evenodd" d="M244.001 83.5526H246.232V78.2553C246.232 77.0899 246.646 76.1188 247.815 76.1188C248.733 76.1188 249.092 76.7015 249.092 78.0964V83.5526H251.323V77.6903C251.323 75.8539 250.693 74.3177 248.589 74.3177C247.203 74.3177 246.682 75.0593 246.286 75.6244H246.232V70.3094H244.001V83.5526Z" fill="#786E64"/>
<path fill-rule="evenodd" clip-rule="evenodd" d="M253.154 83.2524C253.621 83.429 254.576 83.6938 255.727 83.6938C257.742 83.6938 259.181 82.6874 259.181 81.0099C259.181 79.9504 258.605 79.4384 257.453 78.7144L256.356 78.0258C255.708 77.6196 255.313 77.3548 255.313 76.8604C255.313 76.313 255.691 75.9775 256.59 75.9775C257.4 75.9775 257.993 76.1717 258.551 76.3836L258.676 74.6885C258.46 74.6179 257.543 74.3177 256.356 74.3177C254.396 74.3177 253.154 75.642 253.154 76.8957C253.154 78.3259 254.18 78.9086 255.115 79.456L256.032 79.9858C256.841 80.4448 257.022 80.7803 257.022 81.1335C257.022 81.8398 256.393 82.034 255.583 82.034C254.54 82.034 253.621 81.5749 253.262 81.4337L253.154 83.2524Z" fill="#786E64"/>
<path fill-rule="evenodd" clip-rule="evenodd" d="M267.184 81.5926C266.878 81.7868 266.141 82.034 265.601 82.034C263.892 82.034 263.065 80.7274 263.065 79.0322C263.065 77.0899 263.802 75.9775 265.493 75.9775C266.105 75.9775 266.663 76.2247 267.058 76.4189L267.184 74.6885C266.771 74.5296 265.943 74.3177 265.241 74.3177C262.129 74.3177 260.762 76.4189 260.762 79.0146C260.762 81.5926 262.057 83.6938 265.115 83.6938C266.015 83.6938 266.789 83.5173 267.31 83.323L267.184 81.5926Z" fill="#786E64"/>
<path fill-rule="evenodd" clip-rule="evenodd" d="M268.855 83.5526H271.085V78.2553C271.085 77.0899 271.499 76.1188 272.668 76.1188C273.585 76.1188 273.946 76.7015 273.946 78.0964V83.5526H276.176V77.6903C276.176 75.8539 275.546 74.3177 273.442 74.3177C272.057 74.3177 271.534 75.0593 271.139 75.6244H271.085V70.3094H268.855V83.5526Z" fill="#786E64"/>
<path fill-rule="evenodd" clip-rule="evenodd" d="M285.689 74.4589H283.458V79.6679C283.458 80.8333 283.116 81.8927 281.929 81.8927C280.993 81.8927 280.598 81.31 280.598 79.9151V74.4589H278.367V80.3212C278.367 82.1576 278.996 83.6938 281.101 83.6938C282.558 83.6938 283.134 82.8286 283.566 82.1576L283.548 82.1399L283.602 82.1576C283.602 82.6167 283.656 83.0935 283.674 83.5526H285.76C285.707 83.1464 285.689 82.6167 285.689 82.0517V74.4589Z" fill="#786E64"/>
<path fill-rule="evenodd" clip-rule="evenodd" d="M288.094 83.5526H290.325V70.3094H288.094V83.5526Z" fill="#786E64"/>
<path fill-rule="evenodd" clip-rule="evenodd" d="M299.424 81.3807C299.011 81.6809 298.363 82.087 296.996 82.087C295.269 82.087 294.639 81.1511 294.639 79.5973H300V79.1735C300 75.4654 298.291 74.3177 296.294 74.3177C293.938 74.3177 292.48 76.4189 292.48 79.1382C292.48 81.5926 293.776 83.6938 296.762 83.6938C298.093 83.6938 299.065 83.3054 299.532 83.1111L299.424 81.3807ZM294.639 78.22C294.639 77.0193 295.125 75.8009 296.294 75.8009C297.301 75.8009 297.841 76.6132 297.841 78.22H294.639Z" fill="#786E64"/>
<path d="M0.812005 14.706C1.302 15 2.058 15.14 3.038 15.14C4.9 15.14 6.31401 14.188 6.31401 12.2C6.31401 10.828 5.76801 10.212 4.62 9.568L3.57 8.98C3.024 8.672 2.534 8.392 2.534 7.664C2.534 6.992 2.996 6.516 3.892 6.516C4.718 6.516 5.29201 6.768 5.72601 6.936L5.81001 5.438C5.53001 5.354 4.802 5.088 3.766 5.088C2.128 5.088 0.686005 5.998 0.686005 7.748C0.686005 9.008 1.316 9.778 2.282 10.31L3.192 10.814C4.06 11.29 4.466 11.598 4.466 12.298C4.466 13.278 3.766 13.712 2.982 13.712C2.03 13.712 1.26 13.334 0.910005 13.11L0.812005 14.706Z" fill="#F03C14"/>
<path d="M13.132 13.278C12.81 13.516 12.306 13.838 11.242 13.838C9.898 13.838 9.408 13.096 9.408 11.864H13.58V11.528C13.58 8.588 12.25 7.678 10.696 7.678C8.862 7.678 7.728 9.344 7.728 11.5C7.728 13.446 8.736 15.112 11.06 15.112C12.096 15.112 12.852 14.804 13.216 14.65L13.132 13.278ZM9.408 10.772C9.408 9.82 9.786 8.854 10.696 8.854C11.48 8.854 11.9 9.498 11.9 10.772H9.408Z" fill="#F03C14"/>
<path d="M15.12 15H16.856V11.052C16.856 9.708 17.64 9.274 18.354 9.274C18.536 9.274 18.69 9.302 18.844 9.344V7.72C18.746 7.706 18.662 7.678 18.55 7.678C17.472 7.678 16.926 8.546 16.716 9.106H16.688C16.688 8.672 16.646 8.224 16.632 7.79H15.064C15.106 8.112 15.12 8.532 15.12 8.98V15Z" fill="#F03C14"/>
<path d="M21.6799 15H23.7239L25.9359 7.79H24.2559L22.7719 13.348H22.7439L21.2739 7.79H19.4819L21.6799 15Z" fill="#F03C14"/>
<path d="M27.1741 15H28.9101V7.79H27.1741V15ZM27.1461 6.432H28.9381V4.724H27.1461V6.432Z" fill="#F03C14"/>
<path d="M35.5848 13.446C35.3468 13.6 34.7728 13.796 34.3528 13.796C33.0228 13.796 32.3788 12.76 32.3788 11.416C32.3788 9.876 32.9528 8.994 34.2688 8.994C34.7448 8.994 35.1788 9.19 35.4868 9.344L35.5848 7.972C35.2628 7.846 34.6188 7.678 34.0728 7.678C31.6508 7.678 30.5868 9.344 30.5868 11.402C30.5868 13.446 31.5948 15.112 33.9748 15.112C34.6748 15.112 35.2768 14.972 35.6828 14.818L35.5848 13.446Z" fill="#F03C14"/>
<path d="M42.0918 13.278C41.7698 13.516 41.2658 13.838 40.2018 13.838C38.8578 13.838 38.3678 13.096 38.3678 11.864H42.5398V11.528C42.5398 8.588 41.2098 7.678 39.6558 7.678C37.8218 7.678 36.6878 9.344 36.6878 11.5C36.6878 13.446 37.6958 15.112 40.0198 15.112C41.0558 15.112 41.8118 14.804 42.1758 14.65L42.0918 13.278ZM38.3678 10.772C38.3678 9.82 38.7458 8.854 39.6558 8.854C40.4398 8.854 40.8598 9.498 40.8598 10.772H38.3678Z" fill="#F03C14"/>
<path d="M47.8285 4.5V13.768C47.8285 14.286 47.8145 14.734 47.7725 15H49.3965C49.4245 14.79 49.4525 14.37 49.4525 13.88H49.4945C49.7745 14.496 50.2925 15.112 51.4125 15.112C53.2045 15.112 53.9465 13.404 53.9465 11.402C53.9465 9.05 53.0085 7.678 51.4545 7.678C50.4185 7.678 49.8445 8.266 49.5925 8.826H49.5645V4.5H47.8285ZM49.5645 11.374C49.5645 9.974 49.9565 8.952 50.9085 8.952C51.8745 8.952 52.2105 9.89 52.2105 11.332C52.2105 12.998 51.9445 13.838 50.9365 13.838C49.9145 13.838 49.5645 12.732 49.5645 11.374Z" fill="#F03C14"/>
<path d="M56.538 7.79H54.746L57.14 15.07L57.014 15.686C56.79 16.428 56.566 16.75 56.048 16.736C55.782 16.736 55.586 16.666 55.39 16.596L55.292 17.926C55.544 18.01 55.936 18.108 56.398 18.108C57.56 18.108 58.148 17.366 58.456 16.372L61.088 7.79H59.408L58.022 13.236H57.994L56.538 7.79Z" fill="#F03C14"/>
</symbol><use xlink:href="#icon-mhh-logo-microsite-en" x="0" y="811" width="300" height="120"/><symbol id="icon-mhh-logo" viewBox="0 0 334 80">
    <g fill="currentColor" fill-rule="evenodd">
        <path d="M.268 38.477V.21H6.72l10.241 14.459c1.362 1.973 2.368 3.426 3.257 4.936h.118a81.805 81.805 0 0 1 3.197-5.169L32.885.21h6.512v54.829h-7.163V16.876c0-1.569 0-3.543.118-5.053h-.118c-.533 1.104-1.953 3.252-2.664 4.298l-7.695 11.73h-3.256l-8.524-12.02c-.83-1.162-1.894-2.498-2.664-3.949h-.118c.058 1.509.058 3.484.058 4.82v21.775H.268M42.048 32.567h16.398V16.773h7.163v38.266h-7.163v-16.55H42.048v-5.922M85.371 16.15h16.398V.356h7.163v38.266h-7.163v-16.55H85.371V16.15zm-9.649 22.473h7.103V.356h-7.103v38.267zM123.862 78.938h2.559v-6.042h4.141v6.042h2.56V65.244h-2.56v5.572h-4.141v-5.572h-2.559v13.694M136.559 71.385c.48-.392 1.58-.981 2.821-.981 1.42 0 1.919.922 1.919 1.923v.372h-.499c-3.141 0-5.42.687-5.42 3.434 0 1.883 1.48 2.962 3.08 2.962 1.479 0 2.259-.706 2.879-1.53h.04c0 .49.021.98.141 1.373h2.24c-.06-.392-.141-1.06-.141-1.785v-4.414c0-2.531-.739-4.061-3.939-4.061-1.581 0-2.561.431-3.26.745l.139 1.962zm4.74 3.178c0 1.805-.539 2.884-2.02 2.884-.96 0-1.579-.628-1.579-1.55 0-1.471 1.259-1.903 3.379-1.903h.22v.57zM146.121 78.938h2.479v-5.885c0-1.295.461-2.374 1.761-2.374 1.02 0 1.42.647 1.42 2.197v6.062h2.479v-6.513c0-2.04-.7-3.747-3.039-3.747-1.68 0-2.38 1.098-2.74 1.706h.02-.061c0-.51-.059-1.04-.079-1.55h-2.32c.059.452.08 1.04.08 1.668v8.436M156.696 78.938h2.48v-5.885c0-1.295.46-2.374 1.76-2.374 1.02 0 1.42.647 1.42 2.197v6.062h2.48v-6.513c0-2.04-.7-3.747-3.04-3.747-1.68 0-2.38 1.098-2.74 1.706h.02-.06c0-.51-.06-1.04-.08-1.55h-2.32c.06.452.08 1.04.08 1.668v8.436M169.551 73.877c0-1.688.38-3.473 1.98-3.473s1.96 1.785 1.96 3.473c0 1.687-.36 3.492-1.96 3.492s-1.98-1.805-1.98-3.492zm-2.56 0c0 4.237 2.44 5.218 4.54 5.218s4.52-.98 4.52-5.218c0-4.12-2.42-5.2-4.52-5.2-2.1 0-4.54 1.08-4.54 5.2zM180.428 78.938h2.92l3.16-10.103h-2.4l-2.12 7.788h-.04l-2.1-7.788h-2.56l3.14 10.103M195.468 76.525c-.46.334-1.18.785-2.7.785-1.92 0-2.62-1.04-2.62-2.766h5.96v-.471c0-4.12-1.9-5.395-4.12-5.395-2.62 0-4.24 2.334-4.24 5.355 0 2.727 1.44 5.062 4.76 5.062 1.48 0 2.56-.432 3.08-.647l-.12-1.923zm-5.32-3.512c0-1.334.54-2.687 1.84-2.687 1.119 0 1.72.902 1.72 2.687h-3.56zM198.309 78.938h2.48v-5.532c0-1.884 1.12-2.492 2.14-2.492.26 0 .48.04.7.098v-2.276c-.14-.02-.26-.058-.42-.058-1.54 0-2.32 1.216-2.62 2h-.04c0-.607-.06-1.235-.08-1.843h-2.24c.06.45.08 1.04.08 1.667v8.436M134.902 56.377h2.32V42.683h-3.7l-2.94 10.221h-.041l-2.879-10.22h-3.821v13.693h2.32V44.959h.041l3.34 11.418h1.82l3.499-11.418h.041v11.418M147.442 53.964c-.46.333-1.18.784-2.7.784-1.92 0-2.62-1.04-2.62-2.766h5.96v-.47c0-4.12-1.9-5.396-4.12-5.396-2.62 0-4.24 2.335-4.24 5.356 0 2.727 1.44 5.062 4.76 5.062 1.48 0 2.56-.432 3.08-.648l-.12-1.922zm-5.32-3.512c0-1.334.54-2.688 1.84-2.688 1.12 0 1.72.903 1.72 2.688h-3.56zM156.183 41.663v6.062h-.04c-.36-.785-1.18-1.609-2.66-1.609-2.22 0-3.56 1.923-3.56 5.219 0 2.805 1.06 5.199 3.62 5.199 1.6 0 2.34-.863 2.74-1.727h.06c0 .687.04 1.276.08 1.57h2.32c-.06-.373-.08-1-.08-1.727V41.663h-2.48zm-3.779 9.574c0-2.021.479-3.335 1.859-3.335 1.36 0 1.92 1.432 1.92 3.394 0 1.903-.5 3.452-1.96 3.452-1.44 0-1.819-1.177-1.819-3.511zM161.38 56.377h2.48V46.273h-2.48v10.104zm-.04-12.007h2.56v-2.393h-2.56v2.393zM165.976 56.377h7.02v-1.844h-4.46l4.32-6.18v-2.08h-6.74v1.844h4.26l-4.4 6.16v2.1M175.114 56.377h2.48V46.273h-2.48v10.104zm-.04-12.007h2.56v-2.393h-2.56v2.393zM180.27 56.377h2.48V50.49c0-1.295.46-2.374 1.76-2.374 1.02 0 1.42.648 1.42 2.198v6.062h2.48v-6.514c0-2.04-.7-3.747-3.04-3.747-1.68 0-2.38 1.099-2.74 1.707h.02-.06c0-.51-.06-1.04-.08-1.55h-2.32c.06.451.08 1.04.08 1.668v8.436M191.085 56.377h2.48V46.273h-2.48v10.104zm-.04-12.007h2.56v-2.393h-2.56v2.393zM195.841 56.043c.52.196 1.58.49 2.86.49 2.24 0 3.84-1.118 3.84-2.981 0-1.177-.64-1.746-1.92-2.55l-1.22-.766c-.72-.451-1.16-.745-1.16-1.295 0-.608.42-.98 1.42-.98.9 0 1.56.215 2.18.45l.14-1.883c-.24-.078-1.26-.412-2.58-.412-2.18 0-3.56 1.472-3.56 2.865 0 1.589 1.14 2.236 2.18 2.844l1.02.589c.9.51 1.1.883 1.1 1.275 0 .785-.7 1-1.6 1-1.16 0-2.18-.51-2.58-.666l-.12 2.02M211.44 54.2c-.34.215-1.16.49-1.76.49-1.9 0-2.82-1.452-2.82-3.336 0-2.158.82-3.394 2.7-3.394.68 0 1.3.275 1.74.49l.14-1.922c-.46-.176-1.38-.412-2.16-.412-3.46 0-4.98 2.335-4.98 5.219 0 2.864 1.44 5.199 4.84 5.199 1 0 1.86-.196 2.44-.412l-.14-1.923M213.296 56.377h2.48V50.49c0-1.295.46-2.374 1.76-2.374 1.02 0 1.42.648 1.42 2.198v6.062h2.48v-6.514c0-2.04-.7-3.747-3.04-3.747-1.54 0-2.12.824-2.56 1.452h-.06v-5.905h-2.48v14.714M231.311 53.964c-.46.333-1.18.784-2.7.784-1.92 0-2.619-1.04-2.619-2.766h5.96v-.47c0-4.12-1.901-5.396-4.121-5.396-2.62 0-4.239 2.335-4.239 5.356 0 2.727 1.439 5.062 4.759 5.062 1.48 0 2.561-.432 3.08-.648l-.12-1.922zm-5.319-3.512c0-1.334.539-2.688 1.839-2.688 1.121 0 1.72.903 1.72 2.688h-3.559zM239.828 56.377h2.56v-6.043h4.14v6.043h2.56V42.683h-2.56v5.572h-4.14v-5.572h-2.56v13.694M254.166 51.315c0-1.687.38-3.472 1.98-3.472s1.96 1.785 1.96 3.472-.36 3.492-1.96 3.492-1.98-1.805-1.98-3.492zm-2.56 0c0 4.238 2.44 5.219 4.54 5.219s4.52-.981 4.52-5.219c0-4.12-2.42-5.199-4.52-5.199-2.1 0-4.54 1.08-4.54 5.2zM269.683 54.2c-.34.215-1.16.49-1.76.49-1.9 0-2.82-1.452-2.82-3.336 0-2.158.82-3.394 2.7-3.394.68 0 1.3.275 1.74.49l.14-1.922c-.46-.176-1.38-.412-2.16-.412-3.46 0-4.98 2.335-4.98 5.219 0 2.864 1.44 5.199 4.84 5.199 1 0 1.86-.196 2.44-.412l-.14-1.923M271.539 56.377h2.48V50.49c0-1.295.46-2.374 1.76-2.374 1.02 0 1.42.648 1.42 2.198v6.062h2.48v-6.514c0-2.04-.7-3.747-3.04-3.747-1.54 0-2.12.824-2.56 1.452h-.06v-5.905h-2.48v14.714M281.715 56.043c.519.196 1.58.49 2.86.49 2.24 0 3.84-1.118 3.84-2.981 0-1.177-.64-1.746-1.921-2.55l-1.22-.766c-.72-.451-1.159-.745-1.159-1.295 0-.608.42-.98 1.42-.98.9 0 1.559.215 2.18.45l.139-1.883c-.24-.078-1.26-.412-2.58-.412-2.179 0-3.559 1.472-3.559 2.865 0 1.589 1.14 2.236 2.18 2.844l1.019.589c.9.51 1.101.883 1.101 1.275 0 .785-.7 1-1.6 1-1.16 0-2.181-.51-2.58-.666l-.12 2.02M297.313 54.2c-.34.215-1.16.49-1.76.49-1.9 0-2.82-1.452-2.82-3.336 0-2.158.82-3.394 2.7-3.394.68 0 1.3.275 1.74.49l.14-1.922c-.46-.176-1.38-.412-2.16-.412-3.46 0-4.98 2.335-4.98 5.219 0 2.864 1.44 5.199 4.84 5.199 1 0 1.86-.196 2.44-.412l-.14-1.923M299.17 56.377h2.48V50.49c0-1.295.46-2.374 1.76-2.374 1.019 0 1.42.648 1.42 2.198v6.062h2.48v-6.514c0-2.04-.701-3.747-3.04-3.747-1.54 0-2.121.824-2.56 1.452h-.06v-5.905h-2.48v14.714M317.885 46.273h-2.48v5.788c0 1.295-.38 2.472-1.7 2.472-1.04 0-1.48-.648-1.48-2.198v-6.062h-2.48v6.514c0 2.04.7 3.747 3.04 3.747 1.62 0 2.26-.962 2.74-1.707l-.02-.02.06.02c0 .51.06 1.04.08 1.55h2.32c-.06-.451-.08-1.04-.08-1.668v-8.436M320.56 56.377h2.48V41.663h-2.48zM333.156 53.964c-.46.333-1.18.784-2.7.784-1.92 0-2.62-1.04-2.62-2.766h5.96v-.47c0-4.12-1.9-5.396-4.12-5.396-2.62 0-4.24 2.335-4.24 5.356 0 2.727 1.44 5.062 4.76 5.062 1.48 0 2.56-.432 3.08-.648l-.12-1.922zm-5.32-3.512c0-1.334.54-2.688 1.84-2.688 1.12 0 1.72.903 1.72 2.688h-3.56z"/>
    </g>
</symbol><use xlink:href="#icon-mhh-logo" x="0" y="941" width="334" height="80"/><symbol id="icon-microscope" viewBox="0 0 25 35">
    <path fill="currentColor" fill-rule="nonzero" d="M9.248 27.374l-8.88-4.687c-.33-.192-.472-.575-.283-.91l1.417-2.971c.094-.144.236-.288.377-.336.19-.048.378-.048.52.048l7.833 4.132a3.037 3.037 0 0 1 2.086-.826c.803 0 1.606.335 2.173.91.186.19.347.405.48.638a6.688 6.688 0 0 0 3.77-6.004c0-.91-.176-1.785-.528-2.593a3.137 3.137 0 0 1-1.715-.64l-.897.91.118.12c.283.287.283.718 0 .958a.602.602 0 0 1-.473.191.602.602 0 0 1-.472-.191l-5.668-5.75c-.283-.287-.283-.719 0-.958.284-.288.709-.288.945 0l.094.096 6.707-6.804a.602.602 0 0 1 .473-.192c.189 0 .33.096.472.192l.118.12 1.134-1.15-.496-.503c-.284-.288-.284-.719 0-.958.283-.288.708-.288.944 0l.786.797c.077.036.148.09.206.16l3.354 3.403a.66.66 0 0 1 .13.179l.814.827c.284.287.284.718 0 .958a.602.602 0 0 1-.472.192.602.602 0 0 1-.472-.192l-.496-.503-1.134 1.15.071.072c.284.287.284.718 0 .958l-1.289 1.378c.404.551.62 1.207.628 1.894 1.057 1.755 1.606 3.796 1.606 5.88 0 4.974-3.187 9.33-7.84 10.765v2.698h3.353c.897 0 1.653.766 1.653 1.677v.814c0 .958-.756 1.677-1.653 1.677h-12.8c-.898 0-1.654-.767-1.654-1.677v-.814c0-.91.756-1.677 1.654-1.677h3.306v-3.458zm0-1.544v-.892c0-.413.079-.807.222-1.168l-7.071-3.719-.85 1.725 7.699 4.054zm10.315-11.266c.334.891.501 1.848.501 2.804 0 3.168-1.854 6.037-4.687 7.314.007.085.011.17.011.256v1.755c3.885-1.376 6.518-5.121 6.518-9.325a9.89 9.89 0 0 0-.842-4.014 3.334 3.334 0 0 1-.386.469c-.325.33-.704.58-1.115.741zm.653-3.136a1.867 1.867 0 0 0-.595-1.309 1.818 1.818 0 0 0-1.21-.465c-.472 0-.945.192-1.323.527a1.9 1.9 0 0 0 0 2.636c.709.718 1.89.718 2.598 0a1.86 1.86 0 0 0 .523-1.136.781.781 0 0 1 .007-.253zm-6.15 16.337a.68.68 0 0 1 0-.335v-2.492c0-.479-.19-.91-.52-1.245a1.703 1.703 0 0 0-1.228-.527c-.945 0-1.748.766-1.748 1.772v5.894h3.496v-3.067zm1.546-14.649a3.25 3.25 0 0 1-.413-1.593c0-.862.33-1.677.945-2.3a3.158 3.158 0 0 1 3.868-.522l.902-.915-.047-.048-3.353-3.402-.095-.096-6.282 6.229 3.543 3.593.932-.946zM5.942 32.27c-.142 0-.284.144-.284.287v.815c0 .144.142.287.284.287h12.8c.141 0 .283-.143.283-.287v-.815c0-.143-.142-.287-.283-.287h-12.8zM18.883 3.761l2.41 2.444 1.086-1.102-2.362-2.444-1.134 1.102zm-8.549 12.362a.602.602 0 0 1-.472-.192c-.284-.288-.284-.719 0-.958l.85-.863c.283-.287.709-.287.945 0 .283.288.283.719 0 .958l-.85.863c-.095.144-.284.192-.473.192zm-2.503 2.539a.602.602 0 0 1-.473-.192c-.283-.287-.283-.718 0-.958l.85-.862c.284-.288.71-.288.945 0 .284.287.284.718 0 .958l-.85.862a.602.602 0 0 1-.472.192zm10.58-6.468h-.142c-.047 0-.094 0-.141-.048-.048 0-.095-.048-.095-.048s-.094-.048-.094-.096l-.095-.096c-.047-.048-.047-.096-.047-.096 0-.048-.047-.095-.047-.143v-.144c0-.192.094-.335.189-.48l.094-.095c.047-.048.095-.048.095-.048.047 0 .094-.048.141-.048h.284c.047 0 .094 0 .141.048.048 0 .095.048.095.048.047.048.094.048.094.096l.095.096c.047.048.047.095.047.095 0 .048.047.096.047.144v.288c0 .048 0 .095-.047.143 0 .048-.047.096-.047.096-.047.048-.047.096-.095.096a.671.671 0 0 1-.472.192zM12.318 26.04h-.142c-.047 0-.094 0-.141-.048-.048 0-.095-.047-.095-.047-.047-.048-.094-.048-.094-.096a.62.62 0 0 1-.19-.48c0-.191.095-.335.19-.479l.094-.095c.047-.048.095-.048.095-.048.047 0 .094-.048.141-.048h.284c.047 0 .094 0 .141.048.048 0 .095.048.095.048.047.048.094.048.094.095l.095.096c.047.048.047.096.047.096 0 .048.047.096.047.144v.144c0 .191-.094.335-.189.479l-.094.096c-.047.047-.095.047-.095.047-.047 0-.094.048-.141.048h-.142z"/>
</symbol><use xlink:href="#icon-microscope" x="0" y="1031" width="25" height="35"/><symbol id="icon-minus" viewBox="0 0 30 4">
    <path fill="currentColor" fill-rule="nonzero" d="M1.884 4h26.232c2.512 0 2.512-4 0-4H1.884c-2.512 0-2.512 4 0 4z"/>
</symbol><use xlink:href="#icon-minus" x="0" y="1076" width="30" height="4"/><symbol id="icon-mobil" viewBox="0 0 22 39">
    <path fill="currentColor" fill-rule="nonzero" d="M22 3.884C22 1.736 20.28 0 18.15 0H3.85C1.72 0 0 1.736 0 3.884v31.232C0 37.264 1.72 39 3.85 39h14.3c2.13 0 3.85-1.736 3.85-3.884V3.884zM1.414 6.66h19.172V30.2H1.414V6.66zm16.744 30.914H3.842c-1.343 0-2.428-1.118-2.428-2.473v-3.472h19.172V35.1c0 1.355-1.085 2.473-2.428 2.473zM20.586 3.9v1.332H1.414V3.9c0-1.355 1.085-2.473 2.428-2.473h14.316c1.343 0 2.428 1.118 2.428 2.473zm-7.669 30.027c.393 0 .707.317.707.713a.707.707 0 0 1-.707.714H9.083a.707.707 0 0 1-.707-.714c0-.396.314-.713.707-.713h3.834z"/>
</symbol><use xlink:href="#icon-mobil" x="0" y="1090" width="22" height="39"/><symbol id="icon-news-letter-bottom" viewBox="0 0 1440 94">
    <g id="Artboard" stroke="none" stroke-width="1" fill="none" fill-rule="evenodd">
        <g id="news-letter-bottom" transform="translate(-4.000000, 0.000000)" fill-rule="nonzero">
            <g id="a-link" transform="translate(4.000000, 0.000000)" fill="#2D3E50">
                <polygon id="a" points="0 0 1440 0 1440 94 0 94"/>
            </g>
            <g id="Clipped" transform="translate(0.000000, 27.000000)">
                <g id="Group">
                    <path d="M464.119,33.796 C463.748,31.856 459.523,29.925 454.513,27.984 L468.452172,56.969 L537.541172,56.969 C534.792315,58.2869874 532.004384,59.5218806 529.181172,60.672 L414.259172,60.672 C404.407244,56.6568909 391.775529,61.6496127 382.975656,55.671 L403.352656,55.671 L395.693359,26.255 C391.772359,27.115 388.027344,25.742 388.027344,26.255 C386.066344,27.286 384.574656,28.697 382.975656,30.23 C382.276271,29.9041451 379.462693,33.7342413 378.727539,33.5 C377.043208,35.358228 374.766449,35.8816877 373.423,37.9995 C370.521,37.9995 361.73,45.436 352.508,67 C336.342,50.05 322.013,40.61 315,17.634 C316.615,17.242 318.303,16.999 319.98,16.999 C328.266,16.999 335.256,22.53 337.471,30.101 C338.845281,29.4950773 340.311785,29.1249017 341.809,29.006 C344.272,25.806 348.147,23.724 352.508,23.724 C357.385,23.724 361.653,26.348 364.02,30.23 C367.549286,27.3850141 372.01699,25.9666673 376.541,26.255 C384.331,18.523 395.171,13.677 408.157,13.677 C414.748,13.677 420.978,14.928 426.631,17.166 C429.633,14.406 439.376,9.043 448.949,9.043 C456.129,9.043 462.649,11.859 467.47,16.446 C472.232,15.07 477.374,14.328 482.85,14.328 C490.45,14.328 497.635,15.765 504.157,18.338 C507.62,15.163 518.857,8.999 529.899,8.999 C543.996,8.999 555.887,18.379 559.656,31.215 C561.993425,30.1862425 564.487186,29.5578159 567.033,29.356 C571.225,23.93 584.489,18.337 591.91,18.337 C597.62,18.337 619.973,27.756 623.982,31.215 C610.096,68.768 576.345172,42.271 545.701172,67 C526.509172,34.741 484.781,42.697 475.882,31.338 C471.645,31.351 467.666,32.236 464.119,33.796 Z" id="Path" fill="#D4E3E5"/>
                    <path d="M3.523,68 C3.523,-1.99 3.072,42.427 2.169,42.108 C-3.594,40.075 9.902,46.274 13.029,47.728 C15.525,48.888 30.227,32.101 61.467,39.598 C77.057,43.338 85.552,58.021 85.552,57.758 C85.552,57.494 104.165,44.381 134,44.381 C159.166,44.381 186.191,62.393 186.191,62.393 C186.191,62.393 197.614,37.013 219.887,37.013 C242.159,37.013 249.254,47.649 249.254,47.263 C249.254,46.877 260.039,18 308.678,18 C335.201,18 357.735,39.78 357.98,39.794 C360.54,39.938 362.815,40.091 364.703,40.206 C367.395,37.116 370.403,34.296 373.7,31.801 C383.867,24.107 396.797,19.491 411.775,19.491 C420.963,19.491 429.648,21.235 437.528,24.355 C441.713,20.506 455.296,13.03 468.642,13.03 C485.682,13.03 500.056,24.405 504.612,39.973 C507.438135,38.7272966 510.453397,37.9650302 513.532,37.718 C518.596,31.138 526.565,26.86 535.534,26.86 C545.564,26.86 554.344,32.256 559.211,40.236 C565.631,35.082 573.766,31.992 582.641,31.992 C588.125796,31.9848516 593.545311,33.1816784 598.517,35.498 C605.745,26.474 615.267,22.872 623.982,22.872 L623.982,23.448 C641.014,24.398 647.276,37.481 648.028,40.758 C655.528,38.006 662.548,48.145 671.516,48.145 C681.177,48.145 688.262,44.982 696.178,48.145 C708.966,31.368 731.101,20.013 759.282,20.013 C770.304,20.013 780.722,21.757 790.175,24.877 C795.195,21.027 811.489,13.551 827.498,13.551 C847.938,13.551 865.181,24.926 870.646,40.494 C874.087307,39.2374092 877.690258,38.4780958 881.346,38.239 C887.421,31.66 896.98,27.381 907.739,27.381 C919.771,27.381 930.303,32.778 936.141,40.758 C943.843,35.603 953.601,32.514 964.248,32.514 C971.04,32.514 977.518,33.771 983.291,36.019 C987.317,31.829 1001.353,25.428 1016.818,23.393 C1026.531,22.116 1039.283,21.678 1044.966,22.598 C1049.881,23.393 1054.069,19.495 1071.121,23.393 C1081.891,25.855 1084.001,28.855 1088.029,30.727 C1090.525,31.887 1105.227,15.101 1136.467,22.597 C1152.057,26.339 1160.552,41.021 1160.552,40.757 C1160.552,40.494 1179.165,27.381 1209,27.381 C1234.166,27.381 1261.191,45.393 1261.191,45.393 C1261.191,45.393 1272.614,20.013 1294.887,20.013 C1317.159,20.013 1324.254,30.649 1324.254,30.263 C1324.254,29.877 1335.039,1 1383.678,1 C1410.201,1 1432.735,22.78 1432.98,22.794 C1438.016,23.078 1441.947,23.394 1444,23.394 L1444,67.999 L623.982,67.999 L3.523,68 Z" id="Path" fill="#FFFFFF"/>
                </g>
            </g>
        </g>
    </g>
</symbol><use xlink:href="#icon-news-letter-bottom" x="0" y="1139" width="1440" height="94"/><symbol id="icon-newsletter" viewBox="0 0 356 309">
    <g fill="none" fill-rule="evenodd">
        <g>
            <rect width="356" height="309" fill="#2D3E50" rx="4"/>
            <path fill="#E5EAED" d="M14 36h85v111H14z"/>
            <path fill="#F0F0F0" fill-rule="nonzero" d="M94.786 170H17.207c-3.426-.004-6.203-2.761-6.207-6.164V18.164c.003-3.403 2.78-6.161 6.207-6.164h77.588c3.426.004 6.202 2.761 6.205 6.164v145.672c-.004 3.406-2.785 6.164-6.214 6.164zM17.207 14.675c-1.94.002-3.511 1.563-3.513 3.489v145.672c.002 1.926 1.574 3.487 3.513 3.489h77.588c1.938-.003 3.509-1.564 3.511-3.489V18.164c0-.927-.372-1.815-1.032-2.47a3.527 3.527 0 0 0-2.488-1.019H17.207z"/>
            <g fill="#F0F0F0">
                <path d="M99.278 35.808H12.43a1.34 1.34 0 1 1 0-2.68h86.848a1.34 1.34 0 1 1 0 2.68zM99.278 147.433H12.43a1.34 1.34 0 1 1 0-2.679h86.848a1.34 1.34 0 1 1 0 2.68z"/>
            </g>
            <path fill="#F0F0F0" d="M63.676 26H48.324C47.593 26 47 25.328 47 24.5s.593-1.5 1.324-1.5h15.352c.731 0 1.324.672 1.324 1.5s-.593 1.5-1.324 1.5z"/>
            <path fill="#F0F0F0" fill-rule="nonzero" d="M56 165a7 7 0 1 1 7-7.007A7.007 7.007 0 0 1 56 165zm0-11.357a4.36 4.36 0 1 0 0 8.718 4.36 4.36 0 0 0 0-8.718z"/>
        </g>
        <path fill="#F9B1A1" d="M54.584 64h118.832c.95 0 1.862.4 2.534 1.112a3.916 3.916 0 0 1 1.05 2.685v37.945c0 2.098-1.605 3.799-3.584 3.799h-87.12L68.726 123 60.9 109.535h-6.315c-1.978.001-3.582-1.697-3.584-3.793V67.797c0-1.007.378-1.973 1.05-2.685A3.483 3.483 0 0 1 54.584 64z"/>
        <path stroke="#FFFFFE" stroke-dasharray="5,8" stroke-linecap="round" stroke-width="2" d="M212 220.295c-26.56 16.937-108.724 62.18-136.34-6.256-12.24-30.332 15.064-58.769 34.837-65.404 19.772-6.635 44.464.031 54.61 30.332C189.58 252.061 93.186 289.575 67 298.293"/>
        <path fill="#FFFFFE" d="M347.145 140l-134.798 42-27.202-21.977zM262.755 222l84.39-82-120 55.071L262.755 222"/>
        <path fill="#D7D6D1" d="M227.713 195.03L347.145 140l-135 41.697L218.226 220l9.487-24.97"/>
        <path fill="#ABACA8" d="M241.145 205.484L227.688 195l-9.543 25 23-14.516"/>
    </g>
</symbol><use xlink:href="#icon-newsletter" x="0" y="1243" width="356" height="309"/><symbol id="icon-newspaper" viewBox="0 0 30 30">
    <path fill="currentColor" fill-rule="nonzero" d="M26.014 4.73h-5.398V.833A.832.832 0 0 0 19.783 0H3.201A3.203 3.203 0 0 0 0 3.2v22.814A3.992 3.992 0 0 0 3.986 30h22.028A3.992 3.992 0 0 0 30 26.014V8.717a3.992 3.992 0 0 0-3.986-3.987zM3.2 1.665h15.75V4.73H3.2A1.535 1.535 0 0 1 1.665 3.2c0-.844.691-1.535 1.536-1.535zm25.134 24.349c0 1.281-1.04 2.32-2.321 2.32H3.986a2.321 2.321 0 0 1-2.32-2.32V6.006c.454.248.98.39 1.535.39h22.813c1.281 0 2.32 1.039 2.32 2.32v17.298zM26.02 7.884h-6.296a.851.851 0 0 0-.832.833v5.415c0 .46.372.833.832.833h6.296c.46 0 .832-.372.832-.833v-5.41a.833.833 0 0 0-.832-.838zm-.839 5.415h-4.63V9.555h4.63V13.3zm.839 3.951a.832.832 0 1 1 0 1.665H3.992a.832.832 0 1 1 0-1.665H26.02zM3.992 14.965a.832.832 0 1 1 0-1.666h11.014a.832.832 0 1 1 0 1.666H3.992zM26.02 21.2a.832.832 0 1 1 0 1.665H3.992a.832.832 0 1 1 0-1.665H26.02zm0 3.95a.832.832 0 1 1 0 1.666H3.992a.832.832 0 1 1 0-1.665H26.02zM4.016 9.39v2.031h-.72V8.18h.673l1.594 2.085V8.179h.726v3.242h-.726L4.016 9.39zm5.462 1.393v.638H7.087V8.18h2.338v.644H7.813v.667h1.453v.62H7.813v.673h1.665zm1.902.638h-.537L9.709 8.18h.785l.638 1.866.579-1.866h.756l.572 1.866.644-1.866h.786l-1.134 3.242h-.538l-.708-2.256-.71 2.256zm4.618-.602c.2.012.437-.112.425-.319.024-.242-.277-.33-.596-.407-.744-.166-1.093-.437-1.093-1.028.024-.626.443-.921 1.164-.963.496.006.885.172 1.216.426l-.366.531c-.283-.213-.573-.319-.874-.319-.266 0-.366.13-.39.313.012.23.272.307.715.425.614.148.998.443.974 1.004 0 .573-.484.98-1.187.98-.514 0-.974-.194-1.388-.572l.432-.532c.348.307.673.46.968.46z"/>
</symbol><use xlink:href="#icon-newspaper" x="0" y="1562" width="30" height="30"/><symbol id="icon-paper-plane" viewBox="0 0 33 34">
    <path fill="currentColor" fill-rule="nonzero" d="M32.502.168c-.35-.224-.799-.224-1.15 0L.49 20.088a1.062 1.062 0 0 0 .143 1.864l9.579 4.25.436 6.805c.028.406.286.761.665.913a1.066 1.066 0 0 0 1.113-.19l4.842-4.351 10.148 4.53c.136.059.283.09.431.091.54.004.997-.395 1.064-.93L32.992 1.2c.05-.41-.14-.811-.49-1.03zM12.627 30.685l-.23-3.479 2.741 1.222-2.511 2.257zm14.368.701L12.68 25.012 25.233 12.44a1.061 1.061 0 0 0-.056-1.442 1.066 1.066 0 0 0-1.444-.056L10.578 24.067l-7.285-3.251L30.587 3.19l-3.592 28.195z"/>
</symbol><use xlink:href="#icon-paper-plane" x="0" y="1602" width="33" height="34"/><symbol id="icon-person" viewBox="0 0 26 33">
    <path fill="currentColor" fill-rule="nonzero" d="M1.644 21.459c.527 1.361 2.269 5.752 3.533 7.635l.114.171C6.218 30.662 7.77 33 13 33c5.23 0 6.782-2.338 7.709-3.735l.114-.171c1.264-1.883 3.005-6.274 3.533-7.635A2.16 2.16 0 0 0 26 19.369V16.5c0-.935-.604-1.733-1.444-2.03v-3.71c0-2.831-1.502-8.063-7.056-8.568a1.623 1.623 0 0 0-.249-.813C16.541.239 14.548 0 13 0 .149 0 0 12.074 0 12.196c0 .396.323.716.72.716h.002a.72.72 0 0 0 .722-.716C1.446 11.757 1.608 1.435 13 1.435c2.042 0 2.86.439 3.022.699.023.036.084.134-.057.415a.714.714 0 0 0 .031.698c.133.21.364.34.615.34 6.403 0 6.5 6.882 6.5 7.174v4.304a.72.72 0 0 0 .722.718.72.72 0 0 1 .722.717v2.87a.72.72 0 0 1-.722.717.724.724 0 0 0-.677.466c-.02.056-2.153 5.686-3.535 7.745l-.118.177c-.866 1.305-2.051 3.09-6.503 3.09-4.453 0-5.638-1.785-6.503-3.09l-.118-.177c-1.382-2.059-3.515-7.689-3.536-7.745a.722.722 0 0 0-.676-.466.72.72 0 0 1-.723-.717V16.5a.71.71 0 0 1 .205-.5c.263.585.798 1.11 1.697 1.2l2.471 1.84a2.877 2.877 0 0 0 2.85 2.482h1.444c1.593 0 2.889-1.287 2.889-2.87 0 1.583 1.296 2.87 2.889 2.87h1.444a2.877 2.877 0 0 0 2.85-2.482l2.64-1.966a.714.714 0 0 0 .144-1.004.724.724 0 0 0-1.011-.144l-1.841 1.372a2.16 2.16 0 0 0-2.06-1.515h-2.888A2.162 2.162 0 0 0 13 17.935a2.162 2.162 0 0 0-2.167-2.152H7.944c-.97 0-1.783.64-2.059 1.515L4.507 16.27c.569-1.364 1.084-3.382 1.23-4.8 2.276-.04 8.862-.315 11.792-2.132.665 2.548 2.797 4.693 2.905 4.799.282.28.739.28 1.021 0a.713.713 0 0 0 0-1.015c-.027-.026-2.677-2.688-2.677-5.232a.725.725 0 0 0-1.341-.37c-1.052 1.74-7.873 2.523-12.381 2.523a.72.72 0 0 0-.723.717c0 1.164-.554 3.49-1.143 4.921-.23-.137-.295-.394-.301-.617a.72.72 0 0 0-.722-.717A2.162 2.162 0 0 0 0 16.5v2.87a2.16 2.16 0 0 0 1.644 2.089zm12.8-3.524a.72.72 0 0 1 .723-.718h2.889a.72.72 0 0 1 .722.718v.717c0 .791-.648 1.435-1.445 1.435H15.89a1.441 1.441 0 0 1-1.445-1.435v-.717zm-7.222 0a.72.72 0 0 1 .722-.718h2.89a.72.72 0 0 1 .722.718v.717c0 .791-.648 1.435-1.445 1.435H8.667a1.441 1.441 0 0 1-1.445-1.435v-.717zm9.388 7.893a.72.72 0 0 1-.721.716 7.98 7.98 0 0 1-2.89-.644 7.983 7.983 0 0 1-2.888.644.72.72 0 0 1-.722-.718.72.72 0 0 1 .722-.717c.01 0 1.303-.014 2.566-.642a.73.73 0 0 1 .646 0 6.573 6.573 0 0 0 2.568.642c.398.002.72.324.72.72zm-4.332 1.433h1.444c.4 0 .722.321.722.717a.72.72 0 0 1-.722.718h-1.444a.72.72 0 0 1-.722-.718.72.72 0 0 1 .722-.717z"/>
</symbol><use xlink:href="#icon-person" x="0" y="1646" width="26" height="33"/><symbol id="icon-phone" viewBox="0 0 32 30">
    <path fill="none" fill-rule="evenodd" stroke="currentColor" stroke-linecap="round" stroke-linejoin="round" d="M31 21.963v4.215a2.725 2.725 0 0 1-.978 2.083c-.626.534-1.465.799-2.311.728-4.642-.47-9.1-1.948-13.018-4.314-3.644-2.157-6.734-5.035-9.05-8.43-2.55-3.666-4.136-7.839-4.63-12.182a2.692 2.692 0 0 1 .776-2.147A3.122 3.122 0 0 1 4.014 1h4.525c1.514-.014 2.805 1.02 3.017 2.417a17.037 17.037 0 0 0 1.056 3.948c.414 1.027.15 2.185-.679 2.965l-1.916 1.784c2.148 3.518 5.274 6.43 9.05 8.43l1.916-1.784c.838-.772 2.08-1.018 3.183-.632 1.369.475 2.79.805 4.239.983 1.516.2 2.632 1.426 2.594 2.852z"/>
</symbol><use xlink:href="#icon-phone" x="0" y="1689" width="32" height="30"/><symbol id="icon-play" viewBox="0 0 52 66">
<path d="M50 30.7L4.09999 0.599982C2.59999 -0.400018 0.799988 0.899981 0.799988 2.89998V63.2C0.799988 65.2 2.59999 66.5 4.09999 65.5L50 35.3C51.5 34.3 51.5 31.7 50 30.7Z" fill="currentColor"/>
</symbol><use xlink:href="#icon-play" x="0" y="1729" width="52" height="66"/><symbol id="icon-plus" viewBox="0 0 30 30">
    <path fill="currentColor" fill-rule="nonzero" d="M13.052 13.06V1.884c0-2.512 3.896-2.512 3.896 0V13.06h11.168c2.512 0 2.512 3.896 0 3.896H16.948v11.16c0 2.512-3.896 2.512-3.896 0v-11.16H1.884c-2.512 0-2.512-3.896 0-3.896h11.168z"/>
</symbol><use xlink:href="#icon-plus" x="0" y="1805" width="30" height="30"/><symbol id="icon-right-arrow" viewBox="0 0 30 16">
    <path fill="#f03c14" fill-rule="nonzero" d="M30 1.694c0 .391-.13.756-.391 1.095L16.277 15.335c-.34.443-.782.665-1.33.665-.547 0-.99-.222-1.329-.665L.364 2.828a1.656 1.656 0 0 1-.352-1.251c.052-.47.26-.848.626-1.135A1.655 1.655 0 0 1 1.888.09c.47.052.848.261 1.135.626l11.924 10.825L26.95.638a1.612 1.612 0 0 1 1.134-.626c.47-.052.886.065 1.251.352.443.34.665.782.665 1.33z"/>
</symbol><use xlink:href="#icon-right-arrow" x="0" y="1845" width="30" height="16"/><symbol id="icon-right" viewBox="0 0 16 30">
<path d="M1.69399 -7.70344e-06C2.085 -7.72053e-06 2.45 0.129993 2.789 0.390993L15.335 13.723C15.778 14.063 16 14.505 16 15.053C16 15.6 15.778 16.043 15.335 16.382L2.828 29.636C2.65399 29.776 2.45346 29.8793 2.23847 29.9398C2.02348 30.0003 1.79848 30.0167 1.577 29.988C1.107 29.936 0.728996 29.728 0.441996 29.362C0.302076 29.1881 0.198764 28.9878 0.138273 28.773C0.077781 28.5581 0.0613597 28.3333 0.0899963 28.112C0.141996 27.642 0.350996 27.264 0.715996 26.977L11.541 15.053L0.637995 3.04999C0.460902 2.91454 0.313833 2.74383 0.206083 2.54864C0.098333 2.35345 0.0322446 2.13803 0.0119951 1.91599C-0.0400049 1.44599 0.0769951 1.02999 0.363995 0.664993C0.703995 0.221993 1.146 -7.67949e-06 1.69399 -7.70344e-06Z" fill="currentColor"/>
</symbol><use xlink:href="#icon-right" x="0" y="1871" width="16" height="30"/><symbol id="icon-search" viewBox="0 0 24 24" preserveAspectRatio="xMinYMin meet">
    <path fill="currentColor" fill-rule="nonzero" d="M16.615 10.154a6.47 6.47 0 0 0-6.461-6.462 6.47 6.47 0 0 0-6.462 6.462 6.47 6.47 0 0 0 6.462 6.461 6.47 6.47 0 0 0 6.461-6.461zm7.385 12A1.86 1.86 0 0 1 22.154 24a1.81 1.81 0 0 1-1.298-.548l-4.947-4.933a10.13 10.13 0 0 1-5.755 1.789A10.15 10.15 0 0 1 0 10.154 10.15 10.15 0 0 1 10.154 0a10.15 10.15 0 0 1 10.154 10.154c0 2.048-.62 4.067-1.789 5.755l4.947 4.947c.332.331.534.807.534 1.298z"/>
</symbol><use xlink:href="#icon-search" x="0" y="1911" width="24" height="24"/><symbol id="icon-stage-hero" viewBox="0 0 336 154">
    <defs>
        <rect id="a" width="294" height="102" x="39" rx="6"/>
        <filter id="b" width="108.5%" height="149%" x="-4.3%" y="-12.3%" filterUnits="objectBoundingBox">
            <feMorphology in="SourceAlpha" radius="15" result="shadowSpreadOuter1"/>
            <feOffset dy="35" in="shadowSpreadOuter1" result="shadowOffsetOuter1"/>
            <feGaussianBlur in="shadowOffsetOuter1" result="shadowBlurOuter1" stdDeviation="10"/>
            <feColorMatrix in="shadowBlurOuter1" values="0 0 0 0 0 0 0 0 0 0 0 0 0 0 0 0 0 0 0.2 0"/>
        </filter>
    </defs>
    <g fill="none" fill-rule="evenodd" transform="rotate(-6 329.088 74.647)">
        <mask id="c" fill="#fff">
            <use xmlns:xlink="http://www.w3.org/1999/xlink" xlink:href="#a"/>
        </mask>
        <use fill="#000" filter="url(#b)" xlink:href="#a"/>
        <use fill="#ECF0F1" xlink:href="#a"/>
        <path fill="#CAD2D5" d="M74.815 78.599c-2.77.893-6.822 1.926-12.657 2.139-2.691.098-6.171.318-8.006.079-3.624-.472-8.315-2.182-8.315-2.182s-21.318 3.341-29.13 1.278c-7.812-2.063-9.831-3.94-9.831-3.94s14.041 1.064 17.808-1.572c3.767-2.636 8.258-4.774 22.541-1.11 0 0 6.639.077 12.64.105 2.213.011 4.953 2.26 6.635 2.075 3.308-.364 8.735-.424 10.44.907 0 0 8.327-.79 11.307-.771.088 0-.37.521-1.209.643-.236.035-.619.592-.904.628-1.092.138-1.229-.314-1.229-.314-3.26.45-7.71 1.03-8.289 1.326-.442.225-1.036.462-1.8.709" mask="url(#c)"/>
        <path fill="#F03C14" fill-rule="nonzero" d="M320.59 50.588c0 .269-.092.52-.275.753l-9.332 8.625a1.124 1.124 0 0 1-.93.457c-.384 0-.694-.152-.931-.457l-9.278-8.598a1.124 1.124 0 0 1-.246-.86c.036-.323.182-.583.437-.78.256-.198.548-.278.876-.243.329.036.593.18.794.43l8.347 7.443 8.402-7.496c.201-.251.466-.394.794-.43.329-.036.62.045.876.242.31.233.465.538.465.914z" mask="url(#c)" transform="rotate(-90 310.09 54.923)"/>
        <path fill="#67B7DB" d="M31.29 53.463s12.292.736 16.888-.82c4.595-1.553 5.283-8.9 6.787-10.035 0 0-6.117-.423-11.837 1.74-4.628 1.751-8.624 5.675-11.838 9.115"/>
        <path fill="#467D94" d="M59.122 58.358L56.68 76.187s-3.986.867-3.055 1.527c.57.404 1.336.244 1.99.138.868-.141 1.657-.28 2.602-.837.593-.35-.48-.913-.48-.913s4.889-13.674 5.328-15.362c.438-1.688-3.07-5.142-3.944-2.382M66.886 60.748l4.711 14.366s-1.097 1.029-.02 1.151c.927.105 2.967.386 3.246.13.753-.692-2.356-1.39-2.356-1.39s-1.463-12.937-1.719-15.363c-.255-2.426-4.596-2.06-3.862 1.106"/>
        <path fill="#376477" d="M57.924 64.23l.307-3.218 4.132 1.345-.959 3.08s-2.665-.12-3.48-1.208M67.002 63.962l-.94-2.744 4.12-.944.32 2.571s-.74.911-3.5 1.117"/>
        <path fill="#FBCE96" d="M71.241 38.733s15.663-3.304 17.261-3.629c1.52-.308 3.157-.642 3.157-.642s.661.092.013.536c-.648.445-2.38.947-2.38.947s.492 2.135-1.045 2.172c-1.536.036-.835-1.22-.835-1.22L71.32 43.312l-.079-4.579z"/>
        <path fill="#7FCEF4" d="M76.366 39.457c1.026-4.766-12.629-12.406-24.66-8.2-12.18 4.258-14.938 1.137-21.895-.222 0 0 17.538 15.851 34.693 15.208 4.148-.156 5.275-.108 9.125-2.65.797-.525 2.49-2.987 2.737-4.136"/>
        <path fill="#D32B0E" d="M54.429 21.924s2.583 9.185-2.601 21.17c-4.244 9.811 2.09 21.796 16.086 18.973 13.996-2.823 10.962-19.364 4.884-25.245-6.665-6.45-14.245-12.579-18.37-14.898l11.214 28.737"/>
        <path fill="#BD1C00" d="M54.434 21.924s7.144 14.101 5.545 21.301c-1.6 7.2.1 12.721 5.694 14.2 6.667 1.76 11.22-4.836 12.125-9.112 0 0 1.95 12.621-11.196 14.66-12.825 1.988-17.195-8.226-15.84-15.895 1.356-7.668 6.19-13.985 3.672-25.154"/>
        <path fill="#FBCE96" d="M54.34 43.264l-10.098 6.632s-1.337 1.675 1.043 2.633c1.699.683 8.337 3.414 8.337 3.414s-.67.202-1.342.62c-.677.422-1.355 1.063-1.348 1.937.014 1.68 3.217 1.65 4.038-2.603.085-.442-.137-.608-.137-.608l-5.892-4.381s3.862-1.032 6.33-2.596c.4-.254.505-1.049.81-1.329 1.273-1.17 2.22-6.228-1.74-3.72"/>
        <path fill="#E8C08C" d="M55.112 48.474s-2.367-2.633-5.326-2.212l2.653-2.213 3.266 3.602-.593.823z"/>
        <path fill="#AEDEF8" d="M54.297 48.387s-1.352-3.115-6.05-2.64c-7.905.798-13.289 5.437-18.572 13.408C24.94 66.3 11.09 65.5.957 56.62c0 0 9.98 1.396 12.853-7.455 2.874-8.851 6.785-8.322 10.742-9.126 3.956-.805 2.472-8.998-1.701-5.797 0 0 5.342-5.7 13.543-3.828 8.202 1.872 13.337 4.144 17.672 4.153l-.523 2.397c.128.66 1.12 1.883 1.12 1.883 2.87 2.606 2.884 5.311 2.027 7.08-.802 1.654-2.393 2.46-2.393 2.46"/>
        <path fill="#98D6F6" d="M46.087 39.117s-14.991.233-18.496 1.982c0 0 4.032-3.504.232-6.637 0 0 4.16 3.845 9.581 2.785 4.501-.88 8.683 1.87 8.683 1.87M5.396 57.847s7.289 6.243 15.938 4.246c3.052-.705 2.6-3.789 5.52-7.175 3.077-3.568 9.486-7.458 11.095-8.656 0 0-17.635 10.538-22.198 6.058 0 0-2.256 5.446-10.355 5.527"/>
        <path fill="#ED7556" d="M69.022 35.937s5.7 5.686 6.65 11.8c0 0 .542-8.104-6.65-11.8"/>
        <g font-family="Arial-ItalicMT, Arial" font-size="16" font-style="italic">
            <text fill="#F03C14" transform="translate(105.853 16.521)">
                <tspan x=".464" y="60.877">Thrombozytenspenden!</tspan>
            </text>
            <text fill="#393939" transform="translate(105.853 16.521)">
                <tspan x=".309" y="14.514">Achtung, empfindlicher </tspan> <tspan x=".309" y="36.514">Mangel an</tspan>
            </text>
        </g>
    </g>
</symbol><use xlink:href="#icon-stage-hero" x="0" y="1945" width="336" height="154"/><symbol id="icon-talk" viewBox="0 0 35 34">
    <path fill="currentColor" fill-rule="nonzero" d="M30.386 0H4.614C2.07 0 0 2.154 0 4.8V21.46c0 2.647 2.07 4.801 4.614 4.801h13.31c.157 0 .462.132.574.249l6.693 6.963c.336.35.69.528 1.052.528.381 0 .717-.201.92-.552.14-.245.213-.553.213-.917v-6.04a.23.23 0 0 1 .222-.23h2.788C32.93 26.26 35 24.107 35 21.46V4.8C35 2.154 32.93 0 30.386 0zm3.124 21.46c0 1.793-1.401 3.25-3.125 3.25h-2.787c-.944 0-1.712.8-1.712 1.781v5.511l-6.334-6.587c-.39-.409-1.075-.704-1.629-.704H4.614c-1.723 0-3.125-1.458-3.125-3.252V4.8c0-1.792 1.402-3.25 3.125-3.25h25.771c1.724 0 3.125 1.458 3.125 3.25v16.66zm-7.786-9.105H9.276c-.411 0-.745.347-.745.775 0 .428.334.775.745.775h16.448c.411 0 .745-.347.745-.775 0-.428-.333-.775-.745-.775zm0-4.842H9.276c-.411 0-.745.347-.745.775 0 .428.334.775.745.775h16.448c.411 0 .745-.347.745-.775 0-.428-.333-.775-.745-.775zm0 9.684H9.276c-.411 0-.745.347-.745.776 0 .428.334.774.745.774h16.448c.411 0 .745-.346.745-.774 0-.429-.333-.776-.745-.776z"/>
</symbol><use xlink:href="#icon-talk" x="0" y="2109" width="35" height="34"/><symbol id="icon-twitter" viewBox="0 0 235 191">
<path d="M73.7 191C162.4 191 210.9 117.5 210.9 53.8C210.9 51.7 210.9 49.6 210.8 47.6C220.2 40.8 228.4 32.3 234.9 22.6C226.3 26.4 217 29 207.2 30.2C217.2 24.2 224.8 14.8 228.4 3.5C219.1 9 208.8 13 197.8 15.2C189 5.8 176.5 0 162.6 0C136 0 114.4 21.6 114.4 48.2C114.4 52 114.8 55.7 115.7 59.2C75.6 57.2 40.1 38 16.3 8.8C12.2 15.9 9.8 24.2 9.8 33C9.8 49.7 18.3 64.5 31.3 73.1C23.4 72.9 16 70.7 9.5 67.1C9.5 67.3 9.5 67.5 9.5 67.7C9.5 91.1 26.1 110.5 48.2 115C44.2 116.1 39.9 116.7 35.5 116.7C32.4 116.7 29.4 116.4 26.4 115.8C32.5 135 50.3 148.9 71.4 149.3C54.9 162.2 34.1 169.9 11.5 169.9C7.6 169.9 3.8 169.7 0 169.2C21.1 183 46.5 191 73.7 191Z" fill="currentColor"/>
</symbol><use xlink:href="#icon-twitter" x="0" y="2153" width="235" height="191"/><symbol id="icon-up" viewBox="0 0 30 16">
    <path fill="currentColor" fill-rule="nonzero" d="M0 14.306c0-.391.13-.756.391-1.095L13.723.665c.34-.443.782-.665 1.33-.665.547 0 .99.222 1.329.665l13.254 12.507c.287.365.404.782.352 1.251-.052.47-.26.848-.626 1.135a1.655 1.655 0 0 1-1.25.352 1.612 1.612 0 0 1-1.135-.626L15.053 4.459 3.05 15.362a1.612 1.612 0 0 1-1.134.626 1.655 1.655 0 0 1-1.251-.352c-.443-.34-.665-.782-.665-1.33z"/>
</symbol><use xlink:href="#icon-up" x="0" y="2354" width="30" height="16"/><symbol id="icon-video" viewBox="0 0 32 31">
    <path fill="currentColor" fill-rule="nonzero" d="M29.957 0H2.043A2.04 2.04 0 0 0 0 2.034v26.931C0 30.087.916 31 2.043 31h27.914A2.041 2.041 0 0 0 32 28.965V2.035A2.04 2.04 0 0 0 29.957 0zM19.745 1.356h4.766v4.747h-4.766V1.356zm-6.128 0h4.766v4.747h-4.766V1.356zm-6.128 0h4.766v4.747H7.49V1.356zm-6.127.678a.68.68 0 0 1 .68-.678h4.086v4.747H1.362V2.034zm4.766 27.61H2.043a.68.68 0 0 1-.681-.679v-4.068h4.766v4.747zm6.127 0H7.49v-4.747h4.766v4.747zm6.128 0h-4.766v-4.747h4.766v4.747zm6.128 0h-4.766v-4.747h4.765v4.747zm6.127-.679a.68.68 0 0 1-.68.679h-4.086v-4.747h4.766v4.068zm0-5.424H1.362V7.459h29.276v16.082zm0-17.438h-4.766V1.356h4.085a.68.68 0 0 1 .681.678v4.069zM13.8 20.453c-.479 0-.84-.38-.84-.884v-8.137c0-.505.361-.885.84-.885.164 0 .331.048.483.138l6.791 4.059c.282.169.45.451.45.756a.887.887 0 0 1-.45.756l-6.791 4.059a.938.938 0 0 1-.483.139zm.522-8.163v6.42l5.37-3.21-5.37-3.21z"/>
</symbol><use xlink:href="#icon-video" x="0" y="2380" width="32" height="31"/><symbol id="icon-xing" viewBox="0 0 34 34">
    <g fill="none" fill-rule="evenodd">
        <rect width="34" height="34" fill="#F03C14" rx="3"/>
        <path fill="#FFF" fill-rule="nonzero" d="M20.323 30.368l-6.06-10.729L23.67 3H30l-9.406 16.64 6.061 10.728h-6.332zm-10.2-8.21l4.824-7.592-3.618-6.092H5.206l3.618 6.092L4 22.158h6.123z"/>
    </g>
</symbol><use xlink:href="#icon-xing" x="0" y="2421" width="34" height="34"/></svg>